<svg width="1055" height="339" viewBox="0 0 1055 339" fill="none" xmlns="http://www.w3.org/2000/svg">
<path d="M501.97 127.17H472.456L499.917 98.337L482.923 80.4877V51.9993L513.646 84.0892L532.006 64.6945L527.374 61.2656C518.619 54.7454 510.209 45.8246 510.209 33.4673C510.209 15.2731 524.63 2.74341 544.018 2.74341C560.492 2.74341 577.652 14.0726 577.652 34.4953C577.652 45.4796 570.105 54.7454 564.265 60.9277L562.378 62.9834L563.232 63.5014C575.936 72.9397 584 81.688 584 96.7912C584 113.095 570.959 129.399 547.109 129.399C534.068 129.399 523.596 123.224 514.499 113.95L501.97 127.17ZM546.754 109.494C555.685 109.494 561.35 102.456 561.35 95.4183C561.35 88.2154 557.401 83.5788 551.565 79.2873L548.991 77.4037L528.223 99.372C534.059 105.547 539.382 109.494 546.754 109.494ZM556.031 33.8196C556.031 25.5815 549.845 21.635 544.185 21.635C536.979 21.635 531.826 26.782 531.826 33.302C531.826 37.7589 533.888 42.0505 539.553 46.1696L545.555 50.6264L548.821 47.0249C551.911 43.9411 556.031 38.9666 556.031 33.8196Z" fill="#000000"/>
<path d="M474.451 48.6359V68.0161C472.366 67.6927 470.12 67.5346 467.721 67.5346C461.472 67.5346 456.189 69.619 452.501 73.4577C448.98 77.1454 446.895 82.1058 446.895 90.9188V127.279H426.07V48.9521H445.45V59.2027C446.248 58.2395 447.053 57.2836 448.009 56.3204C453.135 51.1947 460.021 48.1538 467.869 47.9885C470.129 47.9957 472.371 48.1538 474.451 48.6359Z" fill="#000000"/>
<path d="M416.638 48.9504V127.277H397.416V119.909C391.168 125.997 382.837 129.519 373.392 129.519C350.647 129.519 333.509 111.261 333.509 88.1925C333.509 65.1245 350.647 46.8655 373.392 46.8655C382.844 46.8655 391.168 50.3879 397.416 56.4768V48.9504H416.638ZM396.618 88.1925C396.618 75.6989 387.811 66.4111 375.792 66.4111C363.78 66.4111 354.967 75.6989 354.967 88.1925C354.967 100.686 363.78 109.974 375.792 109.974C387.811 109.981 396.618 100.686 396.618 88.1925Z" fill="#000000"/>
<path d="M326.795 88.0345C326.795 111.103 309.658 129.361 286.913 129.361C278.265 129.361 270.573 126.321 264.492 121.195V167.964H243.667V48.9501H262.889V56.3184C269.136 50.2299 277.467 46.7075 286.913 46.7075C309.658 46.7075 326.795 64.9665 326.795 88.0345ZM305.33 88.0345C305.33 75.5405 296.524 66.2531 284.505 66.2531C272.493 66.2531 263.68 75.5405 263.68 88.0345C263.68 100.528 272.493 109.816 284.505 109.816C296.524 109.816 305.33 100.528 305.33 88.0345Z" fill="#000000"/>
<path d="M179.182 107.415L199.771 104.532C200.59 108.536 204.508 111.261 208.591 111.261C212.839 111.261 215.78 108.536 215.78 104.69C215.78 101.484 213.817 99.4066 209.41 97.9619L200.425 94.921C185.882 89.9539 180.326 80.6661 180.326 70.7318C180.326 57.4399 192.252 46.8655 208.102 46.8655C220.517 46.8655 230.811 53.5941 234.405 63.0396L214.802 70.2497C213.983 67.2093 211.208 65.1245 208.102 65.1245C204.508 65.1245 201.891 67.2093 201.891 70.2497C201.891 72.8162 203.688 74.5776 207.606 75.857L216.268 78.7398C232.278 84.0232 237.345 94.9139 237.345 104.209C237.345 118.147 225.089 129.519 208.591 129.519C193.725 129.519 181.311 120.067 179.182 107.415Z" fill="#000000"/>
<path d="M171.864 48.9504V127.277H152.642V119.909C146.395 125.997 138.064 129.519 128.618 129.519C105.873 129.519 88.7356 111.261 88.7356 88.1925C88.7356 65.1245 105.873 46.8655 128.618 46.8655C138.071 46.8655 146.395 50.3879 152.642 56.4768V48.9504H171.864ZM151.844 88.1925C151.844 75.6989 143.031 66.4111 131.019 66.4111C119.007 66.4111 110.194 75.6989 110.194 88.1925C110.194 100.686 118.999 109.974 131.019 109.974C143.038 109.974 151.844 100.686 151.844 88.1925Z" fill="#000000"/>
<path d="M22.4283 10.1326V54.5653L66.9543 10.1326H95.148L42.2903 62.487L97.3905 127.27H70.4839L27.3956 75.534L22.4283 80.5088V127.27H0V10.1326H22.4283Z" fill="#000000"/>
<path d="M361.659 205.755C347.118 205.755 344.694 218.506 344.694 231.256C344.694 244.007 347.118 256.757 361.659 256.757C376.2 256.757 378.624 244.007 378.624 231.256C378.018 218.506 376.2 205.755 361.659 205.755ZM379.835 260.4C376.2 264.043 370.141 266.472 363.477 266.472C356.206 266.472 350.147 264.65 344.694 257.364V265.257H335V168.111H344.694V205.755C350.147 199.076 356.206 197.255 363.477 197.255C370.141 197.255 376.2 199.684 379.835 203.327C386.5 210.005 387.712 221.541 387.712 231.863C387.712 242.185 386.5 253.114 379.835 260.4Z" fill="#000000"/>
<path d="M443.454 234.292H424.671C414.371 234.292 409.524 238.542 409.524 246.435C409.524 254.328 414.371 257.971 424.671 257.971C430.124 257.971 435.577 257.364 439.818 253.721C442.242 251.293 443.454 247.65 443.454 242.185V234.292ZM443.454 258.579C438.001 264.043 433.154 265.865 424.065 265.865C414.977 265.865 409.524 264.043 405.283 259.793C402.253 256.757 400.436 251.293 400.436 246.435C400.436 234.899 408.312 227.006 423.459 227.006H443.454V220.327C443.454 210.613 438.607 205.755 426.489 205.755C418.006 205.755 413.765 207.577 409.524 213.648L402.859 207.577C408.918 199.684 415.583 197.862 426.489 197.862C444.665 197.862 453.148 205.755 453.148 220.327V265.865H443.454V258.579Z" fill="#000000"/>
<path d="M514.948 265.257V223.97C514.948 211.827 508.283 206.362 498.589 206.362C488.289 206.362 482.23 212.434 482.23 223.97V265.257H472.536V198.469H482.23V205.755C487.077 200.291 493.742 197.862 501.012 197.862C508.283 197.862 514.342 200.291 517.977 203.934C522.824 208.791 524.642 214.863 524.642 222.756V265.865H514.948" fill="#000000"/>
<path d="M589.471 265.257L568.265 230.649L555.542 245.828V265.257H545.242V168.111H555.542V233.078L585.23 197.862H597.954L574.93 223.97L601.589 265.257H589.471Z" fill="#000000"/>
<path d="M697.925 265.257C686.413 265.257 680.96 257.364 680.96 247.042V205.755H672.478V198.469H680.96V177.219H690.654V198.469H705.195V205.755H690.654V246.435C690.654 252.507 693.684 256.15 699.742 256.15H705.195V264.65H697.925" fill="#000000"/>
<path d="M765.784 265.257V223.97C765.784 212.434 759.725 206.362 749.425 206.362C739.125 206.362 732.461 212.434 732.461 223.97V265.257H722.766V168.111H732.461V205.755C737.308 200.291 743.972 197.862 751.243 197.862C766.39 197.862 775.478 207.577 775.478 222.756V265.864H765.784" fill="#000000"/>
<path d="M834.249 234.292H815.466C805.166 234.292 800.319 238.542 800.319 246.435C800.319 254.328 805.166 257.971 815.466 257.971C820.919 257.971 826.372 257.364 830.614 253.721C833.037 251.293 834.249 247.65 834.249 242.185V234.292ZM834.249 258.579C828.796 264.043 823.949 265.865 814.861 265.865C805.772 265.865 800.319 264.043 796.078 259.793C793.049 256.757 791.231 251.293 791.231 246.435C791.231 234.899 799.108 227.006 814.255 227.006H834.249V220.327C834.249 210.613 829.402 205.755 817.284 205.755C808.802 205.755 804.56 207.577 800.319 213.648L793.655 207.577C799.713 199.684 806.378 197.862 817.284 197.862C835.461 197.862 843.943 205.755 843.943 220.327V265.865H834.249V258.579Z" fill="#000000"/>
<path d="M879.69 265.257C868.179 265.257 862.726 257.364 862.726 247.65V168.718H872.42V247.65C872.42 254.328 874.843 257.364 881.508 257.364H886.961V265.865H879.69" fill="#000000"/>
<path d="M964.514 265.257H955.426L937.855 213.041L920.284 265.257H911.196L889.99 197.862H900.896L916.043 251.9L933.614 197.862H942.096L959.667 251.9L974.814 197.862H985.72L964.514 265.257Z" fill="#000000"/>
<path d="M1009.35 265.257H999.655V198.469H1009.35V265.257ZM1009.96 179.04H999.049V168.111H1009.96V179.04Z" fill="#000000"/>
<path d="M1047.52 265.257C1036.01 265.257 1030.56 257.364 1030.56 247.65V168.718H1040.25V247.65C1040.25 254.328 1042.67 257.364 1049.34 257.364H1054.79V265.865H1047.52" fill="#000000"/>
<path d="M644.001 306.545C639.76 267.079 639.76 221.542 644.607 180.254C649.454 138.967 659.148 94.6442 672.478 57L679.748 57.6072C668.842 93.4299 660.966 138.36 656.119 181.469C651.272 224.577 648.848 270.115 651.878 307.152L644.001 306.545Z" fill="#000000"/>
<path d="M610.071 127.431C619.766 159.611 626.43 197.255 628.854 231.863C631.277 267.079 630.066 304.723 624.613 338.117L618.554 338.724C622.189 307.759 622.189 268.9 619.16 232.471C616.736 196.041 611.889 157.789 603.407 127.431H610.071Z" fill="#000000"/>
</svg>