<svg width="230" height="33" viewBox="0 0 230 33" fill="none" xmlns="http://www.w3.org/2000/svg">
<path d="M97.9875 24.2888H92.2258L97.5862 18.6604L94.2689 15.1761V9.61507L100.266 15.8792L103.85 12.0932L102.947 11.4239C101.237 10.1511 99.5956 8.40968 99.5956 5.99749C99.5956 2.44586 102.411 0 106.195 0C109.411 0 112.761 2.21152 112.761 6.19815C112.761 8.34232 111.288 10.1511 110.148 11.3579L109.779 11.7592L109.946 11.8603C112.426 13.7027 114 15.4105 114 18.3587C114 21.5413 111.454 24.7239 106.799 24.7239C104.253 24.7239 102.208 23.5185 100.433 21.7083L97.9875 24.2888ZM106.73 20.8383C108.473 20.8383 109.578 19.4645 109.578 18.0907C109.578 16.6846 108.808 15.7795 107.669 14.9418L107.166 14.5742L103.112 18.8625C104.252 20.0679 105.29 20.8383 106.73 20.8383ZM108.54 6.06625C108.54 4.45812 107.333 3.68774 106.227 3.68774C104.821 3.68774 103.815 4.69247 103.815 5.96522C103.815 6.83523 104.218 7.67297 105.324 8.47703L106.495 9.34705L107.132 8.64402C107.736 8.04202 108.54 7.07097 108.54 6.06625Z" fill="white"/>
<path d="M92.6159 8.95832V12.7415C92.2089 12.6783 91.7711 12.6475 91.3024 12.6475C90.083 12.6475 89.0516 13.0544 88.3317 13.8037C87.6442 14.5236 87.2372 15.4919 87.2372 17.2122V24.3099H83.172V9.02007H86.9552V11.0211C87.1109 10.8331 87.2681 10.6464 87.4547 10.4584C88.4552 9.45788 89.7995 8.86431 91.3319 8.83203C91.7725 8.83343 92.2103 8.86431 92.6159 8.95832Z" fill="white"/>
<path d="M81.3309 9.0201V24.3099H77.5787V22.8716C76.3592 24.0601 74.7329 24.7477 72.889 24.7477C68.4491 24.7477 65.1038 21.1835 65.1038 16.6804C65.1038 12.1774 68.4491 8.61316 72.889 8.61316C74.7343 8.61316 76.3592 9.30075 77.5787 10.4893V9.0201H81.3309ZM77.4229 16.6804C77.4229 14.2416 75.7039 12.4286 73.3577 12.4286C71.0128 12.4286 69.2925 14.2416 69.2925 16.6804C69.2925 19.1193 71.0128 20.9323 73.3577 20.9323C75.7039 20.9337 77.4229 19.1193 77.4229 16.6804Z" fill="white"/>
<path d="M63.7917 16.6496C63.7917 21.1526 60.4463 24.7169 56.0065 24.7169C54.3184 24.7169 52.8169 24.1233 51.6297 23.1228V32.2523H47.5645V9.02012H51.3168V10.4585C52.5362 9.2699 54.1626 8.58231 56.0065 8.58231C60.4463 8.58231 63.7917 12.1466 63.7917 16.6496ZM59.6016 16.6496C59.6016 14.2107 57.8826 12.3977 55.5364 12.3977C53.1915 12.3977 51.4712 14.2107 51.4712 16.6496C51.4712 19.0884 53.1915 20.9014 55.5364 20.9014C57.8826 20.9014 59.6016 19.0884 59.6016 16.6496Z" fill="white"/>
<path d="M34.9774 20.4327L38.9963 19.87C39.1563 20.6516 39.9211 21.1835 40.7181 21.1835C41.5474 21.1835 42.1214 20.6516 42.1214 19.9009C42.1214 19.275 41.7383 18.8695 40.8781 18.5875L39.124 17.9939C36.2852 17.0242 35.2005 15.2112 35.2005 13.2719C35.2005 10.6773 37.5285 8.61316 40.6227 8.61316C43.0461 8.61316 45.0556 9.9266 45.7572 11.7705L41.9305 13.1779C41.7705 12.5844 41.2289 12.1774 40.6227 12.1774C39.9211 12.1774 39.4103 12.5844 39.4103 13.1779C39.4103 13.6789 39.7611 14.0227 40.5259 14.2725L42.2168 14.8352C45.3418 15.8666 46.3311 17.9925 46.3311 19.8069C46.3311 22.5278 43.9386 24.7477 40.7181 24.7477C37.8162 24.7477 35.3928 22.9024 34.9774 20.4327Z" fill="white"/>
<path d="M33.5489 9.0201V24.3099H29.7966V22.8716C28.5772 24.0601 26.9508 24.7477 25.1069 24.7477C20.6671 24.7477 17.3217 21.1835 17.3217 16.6804C17.3217 12.1774 20.6671 8.61316 25.1069 8.61316C26.9522 8.61316 28.5772 9.30075 29.7966 10.4893V9.0201H33.5489ZM29.6408 16.6804C29.6408 14.2416 27.9205 12.4286 25.5756 12.4286C23.2308 12.4286 21.5104 14.2416 21.5104 16.6804C21.5104 19.1193 23.2294 20.9323 25.5756 20.9323C27.9219 20.9323 29.6408 19.1193 29.6408 16.6804Z" fill="white"/>
<path d="M4.37814 1.44254V10.116L13.0699 1.44254H18.5734L8.25532 11.6624L19.0112 24.3085H13.7589L5.34779 14.2093L4.37814 15.1804V24.3085H0V1.44254H4.37814Z" fill="white"/>
<path d="M210.049 0.0939107C211.374 -0.257988 212.679 0.399507 213.031 1.72376C213.392 3.05727 212.587 4.27039 211.263 4.63155C209.948 4.98345 208.642 4.33522 208.29 3.00171C207.938 1.66819 208.734 0.44581 210.049 0.0939107Z" fill="#DC0045"/>
<path d="M123.955 21.4208C126.26 21.4208 127.881 18.9853 127.881 16.8832V16.4757H127.14C124.908 16.4757 121.352 16.7813 121.352 19.1798C121.343 20.3374 122.195 21.4208 123.955 21.4208ZM127.27 13.5401H127.807V13.4012C127.807 10.9287 126.825 10.0212 124.631 10.0212C123.853 10.0212 122.325 10.2249 122.325 11.1695V12.0863H118.334V10.2619C118.334 7.04854 122.871 6.7059 124.658 6.7059C130.409 6.7059 132.104 9.71556 132.104 13.5772V20.004C132.104 20.4763 132.372 20.7448 132.845 20.7448H134.197V24.3657H130.335C128.742 24.3657 128.131 23.4859 128.131 22.4673C128.131 22.032 128.168 21.7264 128.168 21.7264H128.103C128.103 21.7264 126.779 24.7731 122.89 24.7731C119.806 24.7731 117 22.8469 117 19.3928C117.009 13.9754 124.455 13.5401 127.27 13.5401Z" fill="#DC0045"/>
<path d="M156.866 11.5028C156.866 10.9935 156.598 10.762 156.126 10.762H154.774V7.1041H158.7C160.219 7.1041 160.997 7.75234 160.997 9.20624V10.2249C160.997 10.8639 160.932 11.3084 160.932 11.3084H160.997C161.774 8.83581 163.84 6.87259 166.479 6.87259C166.849 6.87259 167.257 6.93741 167.257 6.93741V11.1695C167.257 11.1695 166.821 11.1046 166.21 11.1046C164.386 11.1046 162.284 12.1511 161.506 14.7255C161.265 15.5682 161.136 16.522 161.136 17.5314V24.3657H156.866V11.5028Z" fill="#DC0045"/>
<path d="M180.944 13.5031C180.879 11.438 179.453 10.0211 177.693 10.0211C175.489 10.0211 173.934 11.3361 173.461 13.5031H180.944ZM177.693 6.69662C182.638 6.69662 185.342 10.3175 185.342 14.8922C185.342 15.4015 185.241 16.485 185.241 16.485H173.332C173.674 19.5317 175.906 21.1245 178.508 21.1245C181.286 21.1245 183.351 19.1983 183.351 19.1983L185.148 22.1802C185.148 22.1802 182.509 24.7824 178.212 24.7824C172.489 24.7824 168.942 20.6522 168.942 15.7441C168.933 10.4193 172.517 6.69662 177.693 6.69662Z" fill="#DC0045"/>
<path d="M145.8 10.336C148.578 10.336 150.643 12.2622 150.643 12.2622L152.44 9.28033C152.44 9.28033 149.801 6.67813 145.504 6.67813C139.781 6.67813 136.234 10.8083 136.234 15.7164V15.7442C136.234 20.6522 139.79 24.7824 145.504 24.7824C149.801 24.7824 152.44 22.1802 152.44 22.1802L150.643 19.1983C150.643 19.1983 148.578 21.1245 145.8 21.1245C143.198 21.1245 140.957 19.5317 140.624 16.485C140.596 16.2164 140.577 15.9479 140.568 15.6979V15.7534C140.577 15.5034 140.596 15.2348 140.624 14.9663C140.966 11.9288 143.198 10.336 145.8 10.336Z" fill="#DC0045"/>
<path d="M203.15 11.3732L198.205 24.3657H193.094L188.148 11.3732L186.583 7.1041H189.306C190.732 7.1041 191.408 7.5486 191.843 8.72468L195.094 17.7907C195.464 18.8094 195.733 20.2633 195.733 20.2633H195.798C195.798 20.2633 196.066 18.8094 196.409 17.7907L199.659 8.72468C200.104 7.53934 200.807 7.1041 202.197 7.1041H204.743L203.15 11.3732Z" fill="#DC0045"/>
<path d="M213.087 24.3657H211.087C209.494 24.3657 208.818 23.6896 208.818 22.0598V11.5028C208.818 10.9935 208.549 10.762 208.077 10.762H206.725V7.1041H210.818C212.411 7.1041 213.087 7.81715 213.087 9.40996V24.3657Z" fill="#DC0045"/>
<path d="M218.115 18.8834C218.115 18.8834 220.319 21.4208 223.255 21.4208C224.579 21.4208 225.589 20.8837 225.589 19.7261C225.589 17.2906 216.486 17.3277 216.486 11.7343C216.486 8.28017 219.597 6.69662 223.19 6.69662C225.524 6.69662 229.246 7.47451 229.246 10.2804V12.077H225.459V11.2343C225.459 10.4193 224.237 10.0119 223.292 10.0119C221.773 10.0119 220.718 10.5583 220.718 11.5676C220.718 14.2717 229.885 13.7346 229.885 19.4854C229.885 22.7358 227.005 24.7639 223.255 24.7639C218.514 24.7639 216.078 21.6801 216.078 21.6801L218.115 18.8834Z" fill="#DC0045"/>
</svg>
