<svg width="381" height="110" viewBox="0 0 381 110" fill="none" xmlns="http://www.w3.org/2000/svg">
<g clip-path="url(#clip0_681_13)">
<path d="M335.62 53.74C338.61 52.94 341.55 54.43 342.35 57.41C343.15 60.42 341.35 63.16 338.36 63.96C335.39 64.76 332.46 63.29 331.65 60.28C330.85 57.29 332.66 54.53 335.62 53.74Z" fill="#DC0046"/>
<path d="M141.52 101.82C146.71 101.82 150.37 96.3299 150.37 91.5999V90.6799H148.69C143.66 90.6799 135.64 91.3599 135.64 96.7799C135.64 99.3799 137.55 101.82 141.51 101.82M148.99 84.0399H150.21V83.7399C150.21 78.1699 148 76.1099 143.04 76.1099C141.28 76.1099 137.85 76.5699 137.85 78.6999V80.7599H128.85V76.6399C128.85 69.3899 139.07 68.6299 143.12 68.6299C156.09 68.6299 159.9 75.4199 159.9 84.1199V98.6199C159.9 99.6899 160.51 100.3 161.58 100.3H164.63V108.46H155.93C152.34 108.46 150.97 106.48 150.97 104.19C150.97 103.2 151.05 102.51 151.05 102.51H150.9C150.9 102.51 147.92 109.38 139.15 109.38C132.21 109.38 125.88 105.03 125.88 97.2499C125.88 85.0399 142.66 84.0499 149 84.0499" fill="#DC0046"/>
<path d="M215.73 79.46C215.73 78.32 215.12 77.78 214.05 77.78H211V69.54H219.85C223.28 69.54 225.04 70.99 225.04 74.27V76.56C225.04 78.01 224.89 79 224.89 79H225.04C226.8 73.43 231.45 69.01 237.4 69.01C238.24 69.01 239.16 69.16 239.16 69.16V78.7C239.16 78.7 238.17 78.55 236.8 78.55C232.68 78.55 227.95 80.92 226.2 86.71C225.67 88.62 225.36 90.75 225.36 93.04V108.45H215.75V79.46H215.73Z" fill="#DC0046"/>
<path d="M270 83.9701C269.84 79.3101 266.64 76.1101 262.68 76.1101C257.72 76.1101 254.21 79.0801 253.14 83.9701H270ZM262.68 68.6301C273.82 68.6301 279.92 76.7901 279.92 87.0901C279.92 88.2301 279.69 90.6801 279.69 90.6801H252.83C253.59 97.5501 258.63 101.13 264.5 101.13C270.76 101.13 275.41 96.7801 275.41 96.7801L279.45 103.49C279.45 103.49 273.5 109.36 263.81 109.36C250.92 109.36 242.9 100.05 242.9 88.9901C242.9 77.0101 250.99 68.6201 262.66 68.6201" fill="#DC0046"/>
<path d="M190.78 76.8301C197.04 76.8301 201.69 81.1801 201.69 81.1801L205.74 74.4701C205.74 74.4701 199.79 68.6001 190.1 68.6001C177.21 68.6001 169.19 77.9101 169.19 88.9701V89.0401C169.19 100.1 177.2 109.41 190.1 109.41C199.79 109.41 205.74 103.54 205.74 103.54L201.69 96.8301C201.69 96.8301 197.04 101.18 190.78 101.18C184.9 101.18 179.87 97.6001 179.11 90.7301C179.04 90.1201 179 89.5201 178.99 88.9601V89.0801C179 88.5101 179.04 87.9201 179.11 87.3001C179.87 80.4301 184.91 76.8501 190.78 76.8501" fill="#DC0046"/>
<path d="M320.06 79.16L308.92 108.46H297.4L286.26 79.16L282.72 69.55H288.85C292.06 69.55 293.58 70.54 294.57 73.21L301.89 93.66C302.73 95.95 303.34 99.23 303.34 99.23H303.5C303.5 99.23 304.11 95.95 304.87 93.66L312.2 73.21C313.19 70.54 314.79 69.55 317.92 69.55H323.67L320.06 79.16Z" fill="#DC0046"/>
<path d="M342.45 108.46H337.95C334.36 108.46 332.84 106.94 332.84 103.27V79.47C332.84 78.33 332.23 77.79 331.16 77.79H328.11V69.55H337.34C340.93 69.55 342.45 71.15 342.45 74.74V108.46Z" fill="#DC0046"/>
<path d="M353.78 96.1001C353.78 96.1001 358.74 101.82 365.38 101.82C368.35 101.82 370.64 100.6 370.64 98.0001C370.64 92.5101 350.12 92.5801 350.12 79.9901C350.12 72.2101 357.14 68.6201 365.22 68.6201C370.48 68.6201 378.88 70.3701 378.88 76.7101V80.7501H370.34V78.8401C370.34 77.0101 367.59 76.0901 365.46 76.0901C362.03 76.0901 359.66 77.3101 359.66 79.6001C359.66 85.7101 380.34 84.4801 380.34 97.4501C380.34 104.78 373.85 109.35 365.39 109.35C354.71 109.35 349.22 102.41 349.22 102.41L353.79 96.0801L353.78 96.1001Z" fill="#DC0046"/>
<path d="M242.42 13.53C242.42 9.93999 239.73 8.21999 237.26 8.21999C234.12 8.21999 231.88 10.46 231.88 13.3C231.88 15.24 232.78 17.11 235.25 18.9L237.86 20.84L239.28 19.27C240.63 17.93 242.42 15.76 242.42 13.52M238.38 46.48C242.27 46.48 244.74 43.42 244.74 40.35C244.74 37.28 243.02 35.19 240.48 33.32L239.36 32.5L230.32 42.07C232.86 44.76 235.18 46.48 238.39 46.48M218.89 54.18H206.04L218 41.62L210.6 33.85V21.44L223.98 35.42L231.98 26.97L229.96 25.48C226.15 22.64 222.48 18.76 222.48 13.37C222.48 5.44999 228.76 -0.0100098 237.2 -0.0100098C244.38 -0.0100098 251.85 4.91999 251.85 13.82C251.85 18.6 248.56 22.64 246.02 25.33L245.2 26.23L245.57 26.46C251.1 30.57 254.61 34.38 254.61 40.96C254.61 48.06 248.93 55.16 238.54 55.16C232.86 55.16 228.3 52.47 224.34 48.43L218.88 54.19L218.89 54.18Z" fill="white"/>
<path d="M206.9 19.99V28.43C205.99 28.29 205.01 28.2199 203.97 28.2199C201.25 28.2199 198.95 29.1299 197.34 30.7999C195.81 32.4099 194.9 34.57 194.9 38.4V54.2299H185.83V20.12H194.27V24.58C194.62 24.16 194.97 23.74 195.38 23.33C197.61 21.1 200.61 19.77 204.03 19.7C205.01 19.7 205.99 19.7699 206.89 19.9799" fill="white"/>
<path d="M173 37.21C173 31.77 169.17 27.72 163.93 27.72C158.69 27.72 154.86 31.76 154.86 37.21C154.86 42.66 158.7 46.7 163.93 46.7C169.17 46.7 173 42.65 173 37.21ZM181.72 20.12V54.23H173.35V51.02C170.63 53.67 167 55.21 162.89 55.21C152.98 55.21 145.52 47.26 145.52 37.21C145.52 27.16 152.98 19.21 162.89 19.21C167.01 19.21 170.63 20.74 173.35 23.4V20.12H181.72Z" fill="white"/>
<path d="M133.24 37.1399C133.24 31.6999 129.41 27.6499 124.17 27.6499C118.93 27.6499 115.1 31.6999 115.1 37.1399C115.1 42.5799 118.94 46.6299 124.17 46.6299C129.4 46.6299 133.24 42.5899 133.24 37.1399ZM142.59 37.1399C142.59 47.1899 135.13 55.1399 125.22 55.1399C121.45 55.1399 118.1 53.8199 115.46 51.5799V71.9499H106.39V20.1199H114.76V23.3299C117.48 20.6799 121.11 19.1399 125.22 19.1399C135.13 19.1399 142.59 27.0899 142.59 37.1399Z" fill="white"/>
<path d="M78.3101 45.58L87.2801 44.32C87.6401 46.06 89.3401 47.25 91.1201 47.25C92.9001 47.25 94.2501 46.06 94.2501 44.39C94.2501 42.99 93.3901 42.09 91.4801 41.46L87.5701 40.14C81.2401 37.98 78.8201 33.93 78.8201 29.61C78.8201 23.82 84.0101 19.22 90.9201 19.22C96.3301 19.22 100.81 22.15 102.37 26.26L93.8301 29.4C93.4701 28.08 92.2601 27.17 90.9101 27.17C89.3401 27.17 88.2101 28.08 88.2101 29.4C88.2101 30.52 88.9901 31.29 90.7001 31.84L94.4701 33.1C101.44 35.4 103.65 40.14 103.65 44.19C103.65 50.26 98.3101 55.21 91.1301 55.21C84.6601 55.21 79.2501 51.09 78.3201 45.58" fill="white"/>
<path d="M66.3999 37.21C66.3999 31.77 62.5599 27.72 57.3299 27.72C52.0999 27.72 48.2599 31.76 48.2599 37.21C48.2599 42.66 52.0899 46.7 57.3299 46.7C62.5699 46.7 66.3999 42.65 66.3999 37.21ZM75.1199 20.12V54.23H66.7499V51.02C64.0299 53.67 60.3999 55.21 56.2899 55.21C46.3799 55.21 38.9199 47.26 38.9199 37.21C38.9199 27.16 46.3799 19.21 56.2899 19.21C60.4099 19.21 64.0299 20.74 66.7499 23.4V20.12H75.1199Z" fill="white"/>
<path d="M10.04 3.21997V22.57L29.43 3.21997H41.71L18.69 26.02L42.69 54.23H30.97L12.2 31.7L10.04 33.87V54.23H0.27002V3.21997H10.04Z" fill="white"/>
<path d="M14.59 84.92H12.08V80.35L12.32 74.05L8.19 84.92H6.39L2.26 74.06L2.51 80.35V84.92H0V70.75H3.27L7.3 81.53L11.32 70.75H14.59V84.92Z" fill="white"/>
<path d="M26.1301 80.4102H19.2701C19.3201 80.9502 19.4501 81.4302 19.6901 81.8402C19.9201 82.2602 20.2401 82.5802 20.6401 82.8102C21.0401 83.0402 21.5001 83.1602 22.0401 83.1602C23.1301 83.1602 24.0101 82.7302 24.6701 81.8802L25.9601 83.1402C25.5801 83.7002 25.0501 84.1802 24.3601 84.5502C23.6801 84.9302 22.8501 85.1102 21.8901 85.1102C20.8601 85.1102 19.9701 84.8902 19.2001 84.4402C18.4301 84.0002 17.8501 83.3902 17.4401 82.6202C17.0301 81.8502 16.8301 80.9802 16.8301 80.0202V79.6202C16.8301 78.5402 17.0401 77.5802 17.4501 76.7602C17.8701 75.9402 18.4401 75.3102 19.1601 74.8602C19.8901 74.4102 20.7001 74.1902 21.6101 74.1902C22.6001 74.1902 23.4401 74.4102 24.1101 74.8402C24.7801 75.2702 25.2901 75.8802 25.6201 76.6602C25.9501 77.4402 26.1201 78.3502 26.1201 79.3802V80.4002L26.1301 80.4102ZM23.7401 78.4702C23.7101 77.7902 23.5201 77.2302 23.1901 76.7902C22.8501 76.3502 22.3301 76.1302 21.6101 76.1302C20.9701 76.1302 20.4601 76.3502 20.0701 76.7902C19.6801 77.2302 19.4301 77.8502 19.3201 78.6502H23.7401V78.4702Z" fill="white"/>
<path d="M30.3099 70.7201C30.5599 70.9601 30.6799 71.2701 30.6799 71.6501C30.6799 72.0301 30.5599 72.3301 30.3099 72.5601C30.0599 72.8001 29.7299 72.9201 29.3099 72.9201C28.8899 72.9201 28.5499 72.8001 28.3099 72.5601C28.0599 72.3201 27.9399 72.0201 27.9399 71.6401C27.9399 71.2601 28.0599 70.9501 28.3099 70.7101C28.5599 70.4701 28.8899 70.3501 29.3099 70.3501C29.7299 70.3501 30.0699 70.4701 30.3099 70.7101V70.7201ZM28.0899 84.9201V74.3901H30.5099V84.9201H28.0899Z" fill="white"/>
<path d="M40.91 75.1202C41.49 75.7402 41.78 76.7402 41.78 78.1202V84.9102H39.36V78.1002C39.36 77.4002 39.21 76.9002 38.91 76.6102C38.61 76.3202 38.15 76.1702 37.52 76.1702C37.07 76.1702 36.66 76.2802 36.3 76.5002C35.94 76.7202 35.66 77.0302 35.44 77.4202V84.9102H33.02V74.3802H35.3L35.38 75.6002C35.76 75.1502 36.2 74.8002 36.72 74.5502C37.24 74.3102 37.81 74.1902 38.43 74.1902C39.5 74.1902 40.33 74.5002 40.91 75.1202Z" fill="white"/>
<path d="M53.0598 80.4102H46.1998C46.2498 80.9502 46.3798 81.4302 46.6198 81.8402C46.8498 82.2602 47.1698 82.5802 47.5698 82.8102C47.9698 83.0402 48.4298 83.1602 48.9698 83.1602C50.0598 83.1602 50.9398 82.7302 51.5998 81.8802L52.8898 83.1402C52.5098 83.7002 51.9798 84.1802 51.2898 84.5502C50.6098 84.9302 49.7798 85.1102 48.8198 85.1102C47.7898 85.1102 46.8998 84.8902 46.1298 84.4402C45.3598 84.0002 44.7798 83.3902 44.3698 82.6202C43.9598 81.8502 43.7598 80.9802 43.7598 80.0202V79.6202C43.7598 78.5402 43.9698 77.5802 44.3798 76.7602C44.7998 75.9402 45.3698 75.3102 46.0898 74.8602C46.8198 74.4102 47.6298 74.1902 48.5398 74.1902C49.5298 74.1902 50.3698 74.4102 51.0398 74.8402C51.7098 75.2702 52.2198 75.8802 52.5498 76.6602C52.8798 77.4402 53.0498 78.3502 53.0498 79.3802V80.4002L53.0598 80.4102ZM50.6698 78.4702C50.6398 77.7902 50.4498 77.2302 50.1198 76.7902C49.7798 76.3502 49.2598 76.1302 48.5398 76.1302C47.8998 76.1302 47.3898 76.3502 46.9998 76.7902C46.6098 77.2302 46.3598 77.8502 46.2498 78.6502H50.6698V78.4702Z" fill="white"/>
<path d="M68 81.67H62.56L61.43 84.92H58.79L64.13 70.75H66.4L71.76 84.92H69.12L67.99 81.67H68ZM67.29 79.64L65.28 73.83L63.27 79.64H67.3H67.29Z" fill="white"/>
<path d="M80.4901 74.8502C81.1101 75.2902 81.5801 75.9102 81.9001 76.7202C82.2201 77.5202 82.3801 78.4702 82.3801 79.5402V79.7402C82.3801 80.7702 82.2201 81.6902 81.9001 82.5002C81.5801 83.3102 81.1101 83.9502 80.4901 84.4102C79.8701 84.8702 79.1401 85.1002 78.2801 85.1002C77.1501 85.1002 76.2401 84.7202 75.5401 83.9602V88.9502H73.1201V74.3702H75.3501L75.4501 75.4302C76.1601 74.5902 77.0901 74.1702 78.2601 74.1702C79.1401 74.1702 79.8801 74.3902 80.5001 74.8302L80.4901 74.8502ZM79.9501 79.5402C79.9501 78.5402 79.7501 77.7302 79.3601 77.1002C78.9701 76.4702 78.3701 76.1602 77.5701 76.1602C76.6201 76.1602 75.9401 76.5502 75.5301 77.3402V81.9602C75.9501 82.7602 76.6401 83.1602 77.5901 83.1602C78.3801 83.1602 78.9701 82.8402 79.3601 82.2102C79.7501 81.5702 79.9401 80.7502 79.9401 79.7502V79.5502L79.9501 79.5402Z" fill="white"/>
<path d="M91.7098 74.8502C92.3298 75.2902 92.7999 75.9102 93.1199 76.7202C93.4399 77.5202 93.5998 78.4702 93.5998 79.5402V79.7402C93.5998 80.7702 93.4399 81.6902 93.1199 82.5002C92.7999 83.3102 92.3298 83.9502 91.7098 84.4102C91.0898 84.8702 90.3598 85.1002 89.4998 85.1002C88.3698 85.1002 87.4598 84.7202 86.7598 83.9602V88.9502H84.3398V74.3702H86.5698L86.6698 75.4302C87.3798 74.5902 88.3099 74.1702 89.4799 74.1702C90.3599 74.1702 91.0998 74.3902 91.7198 74.8302L91.7098 74.8502ZM91.1698 79.5402C91.1698 78.5402 90.9698 77.7302 90.5798 77.1002C90.1898 76.4702 89.5898 76.1602 88.7898 76.1602C87.8398 76.1602 87.1598 76.5502 86.7498 77.3402V81.9602C87.1698 82.7602 87.8598 83.1602 88.8098 83.1602C89.5998 83.1602 90.1898 82.8402 90.5798 82.2102C90.9698 81.5702 91.1599 80.7502 91.1599 79.7502V79.5502L91.1698 79.5402Z" fill="white"/>
<path d="M98.0901 82.7501C98.3401 83.0001 98.4702 83.3201 98.4702 83.7101C98.4702 84.1001 98.3401 84.4101 98.0901 84.6601C97.8401 84.9101 97.5002 85.0301 97.0702 85.0301C96.6402 85.0301 96.2902 84.9101 96.0402 84.6601C95.7902 84.4101 95.6602 84.0901 95.6602 83.7101C95.6602 83.3301 95.7902 83.0001 96.0402 82.7501C96.2902 82.5001 96.6402 82.3701 97.0702 82.3701C97.5002 82.3701 97.8401 82.5001 98.0901 82.7501Z" fill="white"/>
<path d="M14.59 108.72H12.08V104.15L12.32 97.85L8.19 108.72H6.39L2.26 97.86L2.51 104.15V108.72H0V94.55H3.27L7.3 105.33L11.32 94.55H14.59V108.72Z" fill="#DC0046"/>
<path d="M26.1301 104.21H19.2701C19.3201 104.75 19.4501 105.23 19.6901 105.64C19.9201 106.06 20.2401 106.38 20.6401 106.61C21.0401 106.84 21.5001 106.96 22.0401 106.96C23.1301 106.96 24.0101 106.53 24.6701 105.68L25.9601 106.94C25.5801 107.5 25.0501 107.98 24.3601 108.35C23.6801 108.73 22.8501 108.91 21.8901 108.91C20.8601 108.91 19.9701 108.69 19.2001 108.24C18.4301 107.8 17.8501 107.19 17.4401 106.42C17.0301 105.65 16.8301 104.78 16.8301 103.82V103.42C16.8301 102.34 17.0401 101.38 17.4501 100.56C17.8701 99.74 18.4401 99.11 19.1601 98.66C19.8901 98.21 20.7001 97.99 21.6101 97.99C22.6001 97.99 23.4401 98.21 24.1101 98.64C24.7801 99.07 25.2901 99.68 25.6201 100.46C25.9501 101.24 26.1201 102.15 26.1201 103.18V104.2L26.1301 104.21ZM23.7401 102.27C23.7101 101.59 23.5201 101.03 23.1901 100.59C22.8501 100.15 22.3301 99.93 21.6101 99.93C20.9701 99.93 20.4601 100.15 20.0701 100.59C19.6801 101.03 19.4301 101.65 19.3201 102.45H23.7401V102.27Z" fill="#DC0046"/>
<path d="M30.3099 94.5199C30.5599 94.7599 30.6799 95.0699 30.6799 95.4499C30.6799 95.8299 30.5599 96.1299 30.3099 96.3599C30.0599 96.5999 29.7299 96.7199 29.3099 96.7199C28.8899 96.7199 28.5499 96.5999 28.3099 96.3599C28.0599 96.1199 27.9399 95.8199 27.9399 95.4399C27.9399 95.0599 28.0599 94.7499 28.3099 94.5099C28.5599 94.2699 28.8899 94.1499 29.3099 94.1499C29.7299 94.1499 30.0699 94.2699 30.3099 94.5099V94.5199ZM28.0899 108.72V98.1899H30.5099V108.72H28.0899Z" fill="#DC0046"/>
<path d="M40.91 98.92C41.49 99.54 41.78 100.54 41.78 101.92V108.71H39.36V101.9C39.36 101.2 39.21 100.7 38.91 100.41C38.61 100.12 38.15 99.97 37.52 99.97C37.07 99.97 36.66 100.08 36.3 100.3C35.94 100.52 35.66 100.83 35.44 101.22V108.71H33.02V98.18H35.3L35.38 99.4C35.76 98.95 36.2 98.6 36.72 98.35C37.24 98.11 37.81 97.99 38.43 97.99C39.5 97.99 40.33 98.3 40.91 98.92Z" fill="#DC0046"/>
<path d="M53.0598 104.21H46.1998C46.2498 104.75 46.3798 105.23 46.6198 105.64C46.8498 106.06 47.1698 106.38 47.5698 106.61C47.9698 106.84 48.4298 106.96 48.9698 106.96C50.0598 106.96 50.9398 106.53 51.5998 105.68L52.8898 106.94C52.5098 107.5 51.9798 107.98 51.2898 108.35C50.6098 108.73 49.7798 108.91 48.8198 108.91C47.7898 108.91 46.8998 108.69 46.1298 108.24C45.3598 107.8 44.7798 107.19 44.3698 106.42C43.9598 105.65 43.7598 104.78 43.7598 103.82V103.42C43.7598 102.34 43.9698 101.38 44.3798 100.56C44.7998 99.74 45.3698 99.11 46.0898 98.66C46.8198 98.21 47.6298 97.99 48.5398 97.99C49.5298 97.99 50.3698 98.21 51.0398 98.64C51.7098 99.07 52.2198 99.68 52.5498 100.46C52.8798 101.24 53.0498 102.15 53.0498 103.18V104.2L53.0598 104.21ZM50.6698 102.27C50.6398 101.59 50.4498 101.03 50.1198 100.59C49.7798 100.15 49.2598 99.93 48.5398 99.93C47.8998 99.93 47.3898 100.15 46.9998 100.59C46.6098 101.03 46.3598 101.65 46.2498 102.45H50.6698V102.27Z" fill="#DC0046"/>
<path d="M69.6 102.53C70 103.12 70.2 103.8 70.2 104.57C70.2 105.91 69.77 106.94 68.91 107.65C68.05 108.36 66.83 108.72 65.27 108.72H60.04V94.55H64.91C66.51 94.55 67.73 94.87 68.59 95.5C69.45 96.13 69.87 97.09 69.87 98.39C69.87 99.05 69.69 99.64 69.34 100.16C68.99 100.68 68.48 101.07 67.82 101.35C68.61 101.56 69.2 101.96 69.6 102.54V102.53ZM62.56 96.58V100.5H64.93C65.7 100.5 66.3 100.33 66.73 99.98C67.15 99.64 67.37 99.15 67.37 98.53C67.37 97.84 67.17 97.34 66.78 97.04C66.38 96.73 65.76 96.58 64.92 96.58H62.57H62.56ZM67.06 106.11C67.48 105.72 67.69 105.21 67.69 104.57C67.69 103.09 66.92 102.35 65.37 102.35H62.56V106.69H65.27C66.05 106.69 66.65 106.5 67.07 106.11H67.06Z" fill="#DC0046"/>
<path d="M81.1701 108.55V108.72H78.7001C78.6001 108.49 78.5101 108.17 78.4301 107.74C78.1001 108.1 77.7001 108.38 77.2401 108.6C76.7801 108.81 76.2601 108.92 75.6701 108.92C74.9801 108.92 74.3701 108.78 73.8201 108.51C73.2701 108.24 72.8501 107.86 72.5401 107.38C72.2301 106.9 72.0801 106.36 72.0801 105.76C72.0801 104.64 72.5001 103.78 73.3301 103.18C74.1601 102.58 75.3501 102.28 76.8801 102.28H78.3401V101.6C78.3401 101.04 78.1901 100.61 77.8801 100.29C77.5801 99.98 77.1201 99.82 76.5301 99.82C76.1701 99.82 75.8601 99.88 75.5901 100C75.3201 100.12 75.1101 100.29 74.9601 100.51C74.8101 100.72 74.7401 100.96 74.7401 101.23H72.3201C72.3201 100.67 72.5001 100.14 72.8601 99.64C73.2201 99.14 73.7301 98.74 74.4001 98.44C75.0701 98.14 75.8301 97.99 76.6801 97.99C77.4801 97.99 78.2001 98.13 78.8101 98.4C79.4301 98.67 79.9101 99.08 80.2601 99.63C80.6101 100.17 80.7801 100.84 80.7801 101.63V106.27C80.7801 107.23 80.9101 107.99 81.1801 108.56L81.1701 108.55ZM77.4901 106.61C77.8801 106.37 78.1701 106.08 78.3501 105.74V103.77H77.0801C76.2401 103.77 75.6001 103.92 75.1601 104.23C74.7301 104.53 74.5101 104.96 74.5101 105.51C74.5101 105.94 74.6501 106.29 74.9401 106.56C75.2301 106.83 75.6201 106.96 76.1401 106.96C76.6601 106.96 77.1001 106.84 77.4901 106.6V106.61Z" fill="#DC0046"/>
<path d="M91.0599 98.92C91.6399 99.54 91.9299 100.54 91.9299 101.92V108.71H89.5099V101.9C89.5099 101.2 89.3599 100.7 89.0599 100.41C88.7599 100.12 88.2999 99.97 87.6699 99.97C87.2199 99.97 86.8099 100.08 86.4499 100.3C86.0899 100.52 85.8099 100.83 85.5899 101.22V108.71H83.1699V98.18H85.4499L85.5299 99.4C85.9099 98.95 86.3499 98.6 86.8699 98.35C87.3899 98.11 87.9599 97.99 88.5799 97.99C89.6499 97.99 90.4799 98.3 91.0599 98.92Z" fill="#DC0046"/>
<path d="M97.7801 104.22L96.7201 105.3V108.72H94.3101V93.77H96.7201V102.35L97.4401 101.45L100.32 98.19H103.24L99.3401 102.57L103.65 108.72H100.85L97.7801 104.22Z" fill="#DC0046"/>
<path d="M107.27 106.55C107.52 106.8 107.65 107.12 107.65 107.51C107.65 107.9 107.52 108.21 107.27 108.46C107.02 108.71 106.68 108.83 106.25 108.83C105.82 108.83 105.47 108.71 105.22 108.46C104.97 108.21 104.84 107.89 104.84 107.51C104.84 107.13 104.97 106.8 105.22 106.55C105.47 106.3 105.82 106.17 106.25 106.17C106.68 106.17 107.02 106.3 107.27 106.55Z" fill="#DC0046"/>
</g>
<defs>
<clipPath id="clip0_681_13">
<rect width="380.33" height="109.39" fill="white"/>
</clipPath>
</defs>
</svg>
