<svg width="60" height="60" viewBox="0 0 60 60" fill="none" xmlns="http://www.w3.org/2000/svg">
<circle cx="30" cy="30" r="30" fill="#009ACE"/>
<path d="M35.625 45C35.28 45 35 44.72 35 44.375V33.125C35 32.78 35.28 32.5 35.625 32.5H38.8237L39.2975 28.75H35.625C35.28 28.75 35 28.47 35 28.125V26.4813C35.0025 24.9763 36.2275 23.7513 37.7325 23.75H40V20H37.7325C34.1625 20.0037 31.2537 22.9112 31.25 26.4825V28.125C31.25 28.47 30.97 28.75 30.625 28.75H27.5V32.5H30.625C30.97 32.5 31.25 32.78 31.25 33.125V44.375C31.25 44.72 30.97 45 30.625 45H16.875C15.8412 45 15 44.1588 15 43.125V16.875C15 15.8412 15.8412 15 16.875 15H43.125C44.1588 15 45 15.8412 45 16.875V43.125C45 44.1588 44.1588 45 43.125 45H35.625ZM43.125 43.75C43.47 43.75 43.75 43.47 43.75 43.125V16.875C43.75 16.53 43.47 16.25 43.125 16.25H16.875C16.53 16.25 16.25 16.53 16.25 16.875V43.125C16.25 43.47 16.53 43.75 16.875 43.75H30V33.75H27.5C26.8112 33.75 26.25 33.19 26.25 32.5V28.75C26.25 28.0612 26.8112 27.5 27.5 27.5H30V26.4813C30.005 22.2225 33.4738 18.755 37.7325 18.75H40C40.69 18.75 41.25 19.3113 41.25 20V23.75C41.25 24.4388 40.69 25 40 25H37.7325C36.9163 25 36.2512 25.665 36.25 26.4825V27.5H39.2925C39.3525 27.5013 39.4025 27.5038 39.455 27.51C39.7837 27.5513 40.0787 27.7188 40.2837 27.9825C40.4887 28.2462 40.5788 28.5737 40.5375 28.905L40.0688 32.655C39.9913 33.2787 39.4575 33.75 38.8288 33.75H36.25V43.75H43.125Z" fill="white"/>
</svg>
