<svg width="60" height="60" viewBox="0 0 60 60" fill="none" xmlns="http://www.w3.org/2000/svg">
<circle cx="30" cy="30" r="30" fill="#009ACE"/>
<path d="M23.125 45C18.645 45 15 41.355 15 36.875V23.125C15 18.645 18.645 15 23.125 15H36.875C41.355 15 45 18.645 45 23.125V36.875C45 41.355 41.355 45 36.875 45H23.125ZM23.125 16.25C19.3338 16.25 16.25 19.3338 16.25 23.125V36.875C16.25 40.6662 19.3338 43.75 23.125 43.75H36.875C40.6662 43.75 43.75 40.6662 43.75 36.875V23.125C43.75 19.3338 40.6662 16.25 36.875 16.25H23.125Z" fill="white"/>
<path d="M30 38.125C25.52 38.125 21.875 34.48 21.875 30C21.875 25.52 25.52 21.875 30 21.875C34.48 21.875 38.125 25.52 38.125 30C38.125 34.48 34.48 38.125 30 38.125ZM30 23.125C26.2088 23.125 23.125 26.2088 23.125 30C23.125 33.7912 26.2088 36.875 30 36.875C33.7912 36.875 36.875 33.7912 36.875 30C36.875 26.2088 33.7912 23.125 30 23.125Z" fill="white"/>
<path d="M38.75 23.75C37.3712 23.75 36.25 22.6288 36.25 21.25C36.25 19.8712 37.3712 18.75 38.75 18.75C40.1288 18.75 41.25 19.8712 41.25 21.25C41.25 22.6288 40.1288 23.75 38.75 23.75ZM38.75 20C38.06 20 37.5 20.5613 37.5 21.25C37.5 21.9387 38.06 22.5 38.75 22.5C39.44 22.5 40 21.9387 40 21.25C40 20.5613 39.44 20 38.75 20Z" fill="white"/>
</svg>
