<svg width="60" height="60" viewBox="0 0 60 60" fill="none" xmlns="http://www.w3.org/2000/svg">
<circle cx="30" cy="30" r="30" fill="#009ACE"/>
<path d="M16.875 43.75C16.53 43.75 16.25 43.47 16.25 43.125V26.875C16.25 26.53 16.53 26.25 16.875 26.25H23.125C23.47 26.25 23.75 26.53 23.75 26.875V43.125C23.75 43.47 23.47 43.75 23.125 43.75H16.875ZM22.5 42.5V27.5H17.5V42.5H22.5Z" fill="white"/>
<path d="M20 25C17.9325 25 16.25 23.3175 16.25 21.25C16.25 19.1825 17.9325 17.5 20 17.5C22.0675 17.5 23.75 19.1825 23.75 21.25C23.75 23.3175 22.0675 25 20 25ZM20 18.75C18.6212 18.75 17.5 19.8712 17.5 21.25C17.5 22.6288 18.6212 23.75 20 23.75C21.3788 23.75 22.5 22.6288 22.5 21.25C22.5 19.8712 21.3788 18.75 20 18.75Z" fill="white"/>
<path d="M36.875 43.7498C36.53 43.7498 36.25 43.4698 36.25 43.1248V34.3748C36.25 33.3411 35.4088 32.4998 34.375 32.4998C33.3412 32.4998 32.5 33.3411 32.5 34.3748V43.1248C32.5 43.4698 32.22 43.7498 31.875 43.7498H25.625C25.28 43.7498 25 43.4698 25 43.1248V26.8748C25 26.5298 25.28 26.2498 25.625 26.2498H31.875C32.22 26.2498 32.5 26.5298 32.5 26.8748V27.5073C33.81 26.6961 35.3037 26.2598 36.8537 26.2373C41.1087 26.2373 43.75 29.5211 43.75 34.8061V43.1248C43.75 43.4698 43.47 43.7498 43.125 43.7498H36.875ZM42.5 42.4998V34.8061C42.5 30.2236 40.3925 27.4873 36.8625 27.4873C35.19 27.5111 33.56 28.1223 32.2787 29.2073C32.1662 29.3036 32.0225 29.3561 31.875 29.3561C31.785 29.3561 31.6937 29.3361 31.6125 29.2986C31.3925 29.1961 31.25 28.9736 31.25 28.7311V27.4998H26.25V42.4998H31.25V34.3748C31.25 32.6523 32.6525 31.2498 34.375 31.2498C36.0975 31.2498 37.5 32.6523 37.5 34.3748V42.4998H42.5Z" fill="white"/>
</svg>
