<svg width="24" height="24" viewBox="0 0 24 24" fill="none" xmlns="http://www.w3.org/2000/svg">
<g clip-path="url(#clip0_8066_10404)">
<path d="M23.5 11.9414C23.5008 13.4566 23.2031 14.9571 22.624 16.3573C22.0449 17.7574 21.1957 19.0298 20.1248 20.1018C19.054 21.1737 17.7825 22.0243 16.3829 22.6048C14.9834 23.1854 13.4832 23.4846 11.968 23.4854C8.89331 23.4343 5.96323 22.1709 3.81547 19.9702C1.6677 17.7694 0.476094 14.8094 0.499986 11.7344C0.502448 8.79515 1.65554 5.97366 3.7124 3.874C5.76926 1.77434 8.5664 0.563389 11.505 0.500403C11.671 0.493403 11.837 0.490403 12.005 0.490403C13.5131 0.482222 15.008 0.772505 16.4034 1.34453C17.7989 1.91656 19.0674 2.75902 20.1358 3.8234C21.2043 4.88777 22.0516 6.15303 22.629 7.54628C23.2064 8.93953 23.5024 10.4333 23.5 11.9414V11.9414Z" stroke="#009ACE" stroke-linecap="round" stroke-linejoin="round"/>
<path d="M11.505 0.5C5.505 7 5.505 15.48 11.505 23.48" stroke="#009ACE" stroke-linecap="round" stroke-linejoin="round"/>
<path d="M12.505 0.5C18.505 7 18.505 15.477 12.505 23.477" stroke="#009ACE" stroke-linecap="round" stroke-linejoin="round"/>
<path d="M2.38599 5.48438H21.52" stroke="#009ACE" stroke-linecap="round" stroke-linejoin="round"/>
<path d="M0.502991 11.4844H23.5" stroke="#009ACE" stroke-linecap="round" stroke-linejoin="round"/>
<path d="M1.98499 17.4844H22.085" stroke="#009ACE" stroke-linecap="round" stroke-linejoin="round"/>
</g>
<defs>
<clipPath id="clip0_8066_10404">
<rect width="24" height="24" fill="white"/>
</clipPath>
</defs>
</svg>
