<?xml version="1.0" encoding="utf-8"?>
<!-- Generator: Adobe Illustrator 17.1.0, SVG Export Plug-In . SVG Version: 6.00 Build 0)  -->
<!DOCTYPE svg PUBLIC "-//W3C//DTD SVG 1.1//EN" "http://www.w3.org/Graphics/SVG/1.1/DTD/svg11.dtd">
<svg version="1.1" xmlns="http://www.w3.org/2000/svg" xmlns:xlink="http://www.w3.org/1999/xlink" x="0px" y="0px" width="540.4px"
	 height="127.1px" viewBox="45.5 357.4 540.4 127.1" enable-background="new 45.5 357.4 540.4 127.1" xml:space="preserve">
<g id="Ebene_1" display="none">
	<g display="inline">
		<g>
			<g>
				<g>
					<path fill="#E42B33" d="M81.3,361.6v118.7H200V361.6H81.3z M195.2,475.4c-5.6,0-103.4,0-109,0c0-5.6,0-103.4,0-109
						c5.6,0,103.5,0,109,0C195.2,372.1,195.2,469.8,195.2,475.4z"/>
				</g>
				<polygon fill="#E42B33" points="186.8,376.6 142.1,376.6 114.9,420.9 142.1,465.3 186.8,465.3 159.7,420.9 				"/>
			</g>
		</g>
		<g>
			<path fill="#3F3A2C" d="M254.6,382.6c-2.9-1.1-4.5-1.7-7.4-1.7c-3.2,0-6.9,1.1-6.9,5.2c0,7.6,17,5.8,17,18.9
				c0,8.4-6.5,11.8-14.4,11.8c-2.8,0-5.5-0.7-8.1-1.7l0.6-5.2c2,0.7,5.3,2,8.2,2c3.3,0,7.7-1.8,7.7-6.4c0-8.9-17-6.3-17-18.7
				c0-7,5.5-10.7,12.7-10.7c2.6,0,5.7,0.5,8.4,1.4L254.6,382.6z"/>
			<path fill="#3F3A2C" d="M296.6,416.2h-6.2l-7.5-24.2h-0.1l-7.3,24.2h-6.2l-9.3-28.9h5.8l6.6,23.9h0.1l7.4-23.9h6.3l7.3,23.9h0.1
				l7-23.9h5.2L296.6,416.2z"/>
			<path fill="#3F3A2C" d="M324.7,410.5c2.1,1.4,5,2.1,6.6,2.1c2.4,0,5.4-1,5.4-4.1c0-5.2-12.5-4.8-12.5-12.9c0-6,4.5-8.9,10.2-8.9
				c2.5,0,4.5,0.5,6.6,1.1l-0.5,4.7c-1.2-0.7-4.4-1.5-5.6-1.5c-2.7,0-5,1.1-5,3.5c0,5.9,12.5,4.2,12.5,13.4c0,6.2-4.9,9-10.1,9
				c-2.7,0-5.5-0.3-7.9-1.6L324.7,410.5z"/>
			<path fill="#3F3A2C" d="M347.4,410.5c2.1,1.4,5.1,2.1,6.6,2.1c2.4,0,5.4-1,5.4-4.1c0-5.2-12.5-4.8-12.5-12.9
				c0-6,4.5-8.9,10.2-8.9c2.5,0,4.5,0.5,6.6,1.1l-0.5,4.7c-1.2-0.7-4.4-1.5-5.6-1.5c-2.7,0-5.1,1.1-5.1,3.5
				c0,5.9,12.5,4.2,12.5,13.4c0,6.2-4.9,9-10.1,9c-2.7,0-5.5-0.3-7.9-1.6L347.4,410.5z"/>
			<path fill="#3F3A2C" d="M389.5,392.2c-2.1-0.8-4.1-1.2-5.8-1.2c-6,0-9.2,5.3-9.2,10.8c0,5.1,2.8,10.8,9.6,10.8
				c1.8,0,4.1-0.6,5.7-1.7l0.4,4.8c-2.2,1-4.8,1.2-6.6,1.2c-8.7,0-14.7-6.8-14.7-15.1c0-8.8,5.9-15.1,14.7-15.1
				c2.1,0,4.9,0.5,6.4,1.1L389.5,392.2z"/>
			<path fill="#3F3A2C" d="M397.3,389.3c2.6-1.6,5.8-2.7,9.5-2.7c8.2,0,11.6,4.1,11.6,12v12c0,3.3,0.1,4.8,0.2,5.7h-4.9v-3.7h-0.1
				c-1.2,1.8-4.1,4.4-9,4.4c-6.3,0-10.6-2.7-10.6-9c0-7.3,7.9-9.5,13.4-9.5c2.1,0,3.5,0,5.7,0.1c0-4.9-1.8-7.6-7.1-7.6
				c-3,0-6.3,1.1-8.4,2.9L397.3,389.3z M413.1,402.4c-1.1,0-2.2-0.1-3.4-0.1c-2.9,0-10,0.5-10,5.5c0,3.1,2.9,4.7,5.4,4.7
				c5.2,0,8-3.3,8-7.6L413.1,402.4L413.1,402.4z"/>
			<path fill="#3F3A2C" d="M426.6,387.4h5.1v4.6h0.1c1.6-3.3,5.4-5.2,9.4-5.2c7.5,0,10.8,4.7,10.8,12.4v17.2h-5.3v-14.9
				c0-6.7-1.5-10-6.1-10.3c-6.1,0-8.8,4.9-8.8,11.9v13.4h-5.3V387.4L426.6,387.4z"/>
			<path fill="#3F3A2C" d="M475,391.7h-7.7v15.8c0,3.4,2.1,5.1,4.5,5.1c1.7,0,2.8-0.5,3.6-1v4.5c-1.2,0.4-2.8,0.7-4.5,0.7
				c-5.5,0-8.9-2.6-8.9-8.4v-16.8h-6.5v-4.2h6.5v-6.6l5.3-1.7v8.4h7.7L475,391.7L475,391.7z"/>
			<path fill="#3F3A2C" d="M492.8,386.6c8.8,0,14.7,6.3,14.7,15.1c0,8.2-6,15.1-14.7,15.1c-8.7,0-14.7-6.8-14.7-15.1
				C478.2,393,484,386.6,492.8,386.6z M492.8,412.6c6.3,0,9-5.7,9-10.8c0-5.5-3.4-10.8-9-10.8c-5.7,0-9.1,5.3-9.1,10.8
				C483.8,406.9,486.6,412.6,492.8,412.6z"/>
		</g>
		<path fill="#3F3A2C" d="M317.5,380.9h-6v-6h6V380.9z M311.8,387.4h5.3v28.9h-5.3V387.4z"/>
	</g>
	<g display="inline">
		<path fill="#6D6A63" d="M242.4,452.5c-0.3-0.1-0.6-0.2-0.7-0.3c-0.2-0.1-0.5-0.2-0.7-0.2c-0.2-0.1-0.5-0.1-0.7-0.1
			c-0.2,0-0.5,0-0.7,0s-0.6,0-0.9,0.1c-0.3,0.1-0.6,0.2-0.8,0.3c-0.3,0.2-0.5,0.4-0.7,0.7c-0.2,0.3-0.3,0.6-0.3,0.9
			c0,0.5,0.2,0.8,0.5,1.2c0.3,0.3,0.7,0.6,1.2,0.8s1,0.5,1.6,0.7c0.6,0.3,1.1,0.6,1.6,0.9s0.8,0.8,1.2,1.4c0.4,0.6,0.5,1.2,0.5,2.1
			s-0.2,1.5-0.5,2.1c-0.3,0.6-0.7,1-1.2,1.4c-0.5,0.4-1.1,0.7-1.8,0.7c-0.7,0.2-1.4,0.3-2.1,0.3c-0.6,0-1-0.1-1.6-0.2
			c-0.5-0.1-1-0.3-1.5-0.5l0.2-2c0.2,0.1,0.4,0.2,0.7,0.3c0.3,0.1,0.5,0.2,0.7,0.3c0.3,0.1,0.6,0.1,0.8,0.2c0.3,0.1,0.6,0.1,0.8,0.1
			s0.7,0,0.9-0.2c0.4-0.1,0.7-0.3,0.9-0.5c0.3-0.2,0.6-0.5,0.7-0.7c0.2-0.3,0.3-0.7,0.3-1.1c0-0.6-0.2-1-0.5-1.4s-0.7-0.7-1.2-0.9
			s-1-0.6-1.6-0.7c-0.6-0.3-1.1-0.6-1.6-0.8c-0.5-0.4-0.8-0.7-1.2-1.2c-0.3-0.5-0.5-1.1-0.5-1.9c0-0.7,0.1-1.2,0.4-1.8
			c0.3-0.5,0.6-0.9,1-1.3s0.9-0.6,1.5-0.7s1.2-0.3,1.9-0.3c0.5,0,1,0,1.6,0.1c0.6,0.1,1.1,0.2,1.6,0.4L242.4,452.5z"/>
		<path fill="#6D6A63" d="M252.1,455.8h-2.9v6c0,0.7,0.2,1.1,0.5,1.5c0.4,0.4,0.7,0.5,1.2,0.5c0.3,0,0.6,0,0.8-0.1
			c0.2-0.1,0.4-0.2,0.6-0.3v1.7c-0.2,0.1-0.5,0.2-0.7,0.2c-0.3,0.1-0.6,0.1-0.9,0.1c-1,0-1.9-0.3-2.4-0.7c-0.6-0.5-0.9-1.3-0.9-2.4
			v-6.4h-2.4v-1.6h2.4v-2.5l2.1-0.7v3.2h2.9L252.1,455.8L252.1,455.8z"/>
		<path fill="#6D6A63" d="M257.2,451.7H255v-2.2h2.2V451.7z M255.1,454.2h2.1v10.9h-2.1V454.2z"/>
		<path fill="#6D6A63" d="M261.9,455.8h-2.6v-1.6h2.6v-1c0-0.7,0.1-1.3,0.2-1.8c0.1-0.6,0.3-1,0.6-1.4c0.3-0.4,0.7-0.7,1.1-0.9
			c0.5-0.2,1.1-0.3,1.9-0.3c0.3,0,0.5,0,0.7,0c0.2,0,0.5,0.1,0.7,0.1l-0.1,1.6c-0.1,0-0.3-0.1-0.5-0.1c-0.2,0-0.4,0-0.6,0
			c-0.5,0-0.7,0.1-1,0.2c-0.3,0.1-0.5,0.3-0.6,0.6c-0.1,0.3-0.2,0.5-0.3,0.8c0,0.3-0.1,0.7-0.1,1v1.2h2.9v1.6h-3v9.3h-2.1
			L261.9,455.8L261.9,455.8z"/>
		<path fill="#6D6A63" d="M276,455.8h-2.9v6c0,0.7,0.2,1.1,0.5,1.5c0.4,0.4,0.7,0.5,1.2,0.5c0.3,0,0.6,0,0.8-0.1
			c0.2-0.1,0.4-0.2,0.6-0.3v1.7c-0.2,0.1-0.5,0.2-0.7,0.2c-0.3,0.1-0.6,0.1-0.9,0.1c-1,0-1.9-0.3-2.4-0.7c-0.6-0.5-0.9-1.3-0.9-2.4
			v-6.4h-2.4v-1.6h2.4v-2.5l2.1-0.7v3.2h2.9L276,455.8L276,455.8z"/>
		<path fill="#6D6A63" d="M288.4,465.2h-2v-1.8l0,0c-0.3,0.7-0.7,1.1-1.4,1.5s-1.4,0.6-2.1,0.6c-1.4,0-2.4-0.4-3.1-1.2
			c-0.7-0.8-1-2-1-3.5v-6.5h2.1v5.7c0,1.3,0.2,2.2,0.5,2.9c0.4,0.7,0.9,0.9,1.9,1c0.6,0,1-0.1,1.5-0.4c0.5-0.2,0.7-0.6,1-0.9
			c0.3-0.4,0.5-0.8,0.6-1.4s0.2-1.1,0.2-1.9v-5h2.1L288.4,465.2L288.4,465.2z"/>
		<path fill="#6D6A63" d="M292,454.2h2v1.8l0,0c0.3-0.7,0.7-1.1,1.4-1.5s1.4-0.6,2.1-0.6c1.4,0,2.4,0.4,3.1,1.2c0.7,0.8,1,2,1,3.5
			v6.5h-2.1v-5.7c0-1.3-0.2-2.2-0.5-2.9c-0.4-0.7-0.9-0.9-1.9-1c-0.6,0-1,0.1-1.5,0.4c-0.5,0.2-0.7,0.6-1,0.9
			c-0.3,0.4-0.5,0.8-0.6,1.4s-0.2,1.2-0.2,1.9v5h-2.1L292,454.2L292,454.2z"/>
		<path fill="#6D6A63" d="M315,464.7c0,1.7-0.5,3-1.4,3.8c-0.9,0.9-2.3,1.4-4.3,1.4c-0.3,0-0.6,0-0.8,0s-0.6-0.1-0.9-0.1
			c-0.4,0-0.7-0.1-1-0.2c-0.4-0.1-0.7-0.2-1.2-0.4l0.2-1.9c0.4,0.2,0.7,0.3,1,0.5c0.3,0.1,0.7,0.2,0.9,0.3c0.3,0.1,0.7,0.1,0.9,0.2
			c0.3,0,0.7,0.1,1,0.1c1.1,0,1.9-0.4,2.5-1c0.6-0.7,0.9-1.6,0.9-2.7v-1.1l0,0c-0.5,0.6-0.9,1-1.6,1.3s-1.3,0.4-2.1,0.4
			c-0.7,0-1.5-0.2-2.1-0.5c-0.6-0.3-1.1-0.7-1.5-1.2c-0.4-0.5-0.7-1.1-0.8-1.7c-0.2-0.7-0.3-1.3-0.3-2.1c0-0.7,0.1-1.4,0.3-2.1
			s0.5-1.3,0.9-1.9c0.4-0.6,0.9-1,1.5-1.3c0.7-0.4,1.3-0.6,2.1-0.6c0.9,0,1.8,0.2,2.3,0.5c0.6,0.4,1,0.7,1.3,1.4l0,0v-1.6h1.9
			L315,464.7L315,464.7z M309.8,463.6c0.5,0,0.9-0.1,1.3-0.3c0.4-0.2,0.7-0.5,1-0.8c0.3-0.4,0.5-0.7,0.7-1.2
			c0.2-0.5,0.3-0.9,0.3-1.5c0-0.6-0.1-1.1-0.2-1.6c-0.1-0.5-0.4-0.9-0.6-1.3c-0.3-0.4-0.7-0.7-1-0.9c-0.4-0.2-0.8-0.4-1.4-0.4
			c-0.6,0-0.9,0.1-1.3,0.4c-0.4,0.3-0.7,0.6-0.9,0.9s-0.5,0.8-0.6,1.3s-0.2,0.9-0.2,1.4c0,0.6,0.1,1,0.2,1.5
			c0.2,0.5,0.4,0.8,0.6,1.2c0.3,0.4,0.6,0.7,0.9,0.8C308.9,463.5,309.3,463.6,309.8,463.6z"/>
		<path fill="#6D6A63" d="M326.9,464.7c-0.2,0.1-0.4,0.2-0.7,0.2c-0.2,0.1-0.5,0.2-0.7,0.2c-0.3,0.1-0.6,0.1-0.9,0.2
			c-0.4,0.1-0.7,0.1-1.2,0.1c-0.9,0-1.8-0.2-2.5-0.5s-1.3-0.7-1.8-1.2s-0.8-1.1-1-1.9c-0.2-0.7-0.4-1.5-0.4-2.4
			c0-0.8,0.1-1.6,0.4-2.2c0.3-0.7,0.6-1.2,1-1.8c0.5-0.5,1-0.8,1.6-1.1c0.7-0.3,1.3-0.4,2.1-0.4c0.9,0,1.7,0.2,2.3,0.5
			c0.7,0.3,1.1,0.7,1.5,1.3c0.4,0.6,0.7,1.2,0.8,2c0.2,0.7,0.3,1.6,0.3,2.4h-7.8c0,0.6,0.1,1,0.3,1.5s0.5,0.8,0.8,1.1
			c0.4,0.3,0.7,0.6,1.1,0.7c0.5,0.2,0.9,0.3,1.4,0.3c0.4,0,0.7,0,1-0.1c0.4-0.1,0.7-0.2,1-0.3c0.3-0.1,0.6-0.2,0.8-0.4
			c0.3-0.1,0.4-0.3,0.6-0.4L326.9,464.7L326.9,464.7z M325.6,458.6c0-0.4-0.1-0.8-0.2-1.2s-0.3-0.7-0.6-0.9
			c-0.2-0.3-0.6-0.5-0.8-0.7c-0.4-0.2-0.7-0.3-1.1-0.3c-0.5,0-0.9,0.1-1.3,0.3c-0.4,0.2-0.7,0.5-0.8,0.7c-0.2,0.3-0.4,0.7-0.6,0.9
			c-0.1,0.4-0.2,0.7-0.3,1.1H325.6L325.6,458.6z"/>
		<path fill="#6D6A63" d="M330.6,454.2h2v1.8l0,0c0.3-0.7,0.7-1.1,1.4-1.5s1.4-0.6,2.1-0.6c1.4,0,2.4,0.4,3.1,1.2c0.7,0.8,1,2,1,3.5
			v6.5h-2.1v-5.7c0-1.3-0.2-2.2-0.5-2.9c-0.4-0.7-0.9-0.9-1.9-1c-0.6,0-1,0.1-1.5,0.4c-0.5,0.2-0.7,0.6-1,0.9
			c-0.3,0.4-0.5,0.8-0.6,1.4s-0.2,1.2-0.2,1.9v5h-2.1L330.6,454.2L330.6,454.2z"/>
		<path fill="#6D6A63" d="M349.5,449.9h1.9l-5.1,15.5h-1.9L349.5,449.9z"/>
		<path fill="#6D6A63" d="M355,450.1h7.9v1.9h-5.8v4.4h5.6v1.9h-5.6v6.8H355V450.1z"/>
		<path fill="#6D6A63" d="M364.9,459.7c0-0.8,0.1-1.6,0.4-2.3c0.3-0.7,0.7-1.3,1.1-1.8c0.5-0.5,1.1-0.9,1.8-1.2
			c0.7-0.3,1.4-0.5,2.3-0.5c0.8,0,1.6,0.2,2.2,0.5c0.7,0.3,1.3,0.7,1.8,1.2c0.5,0.5,0.8,1.1,1.1,1.8c0.3,0.7,0.4,1.5,0.4,2.3
			c0,0.7-0.1,1.5-0.4,2.2c-0.3,0.7-0.7,1.3-1.1,1.9c-0.5,0.6-1.1,0.9-1.8,1.2c-0.7,0.3-1.4,0.5-2.2,0.5s-1.6-0.2-2.2-0.5
			c-0.7-0.3-1.3-0.7-1.8-1.2c-0.5-0.6-0.8-1.1-1.1-1.9C365.1,461.2,364.9,460.5,364.9,459.7z M367,459.7c0,0.5,0.1,0.9,0.2,1.5
			c0.1,0.5,0.4,0.9,0.7,1.3c0.3,0.4,0.7,0.7,1,0.9c0.5,0.3,0.9,0.4,1.6,0.4c0.6,0,1.1-0.1,1.5-0.4c0.5-0.3,0.7-0.6,1-0.9
			s0.5-0.8,0.7-1.3c0.1-0.5,0.2-0.9,0.2-1.5c0-0.6-0.1-1-0.3-1.5c-0.2-0.5-0.4-0.9-0.7-1.3s-0.7-0.7-1.1-0.9
			c-0.5-0.2-0.9-0.4-1.4-0.4c-0.6,0-1,0.1-1.5,0.4c-0.5,0.2-0.7,0.6-1.1,0.9c-0.3,0.4-0.6,0.8-0.7,1.3
			C367.1,458.6,367,459.2,367,459.7z"/>
		<path fill="#6D6A63" d="M378.7,454.2h2v1.8l0,0c0.3-0.7,0.7-1.1,1.4-1.5s1.4-0.6,2.1-0.6c1.4,0,2.4,0.4,3.1,1.2c0.7,0.8,1,2,1,3.5
			v6.5h-2.1v-5.7c0-1.3-0.2-2.2-0.5-2.9c-0.4-0.7-0.9-0.9-1.9-1c-0.6,0-1,0.1-1.5,0.4c-0.5,0.2-0.7,0.6-1,0.9
			c-0.3,0.4-0.5,0.8-0.6,1.4s-0.2,1.2-0.2,1.9v5h-2V454.2L378.7,454.2z"/>
		<path fill="#6D6A63" d="M399.8,463.7L399.8,463.7c-0.2,0.2-0.4,0.4-0.6,0.7c-0.2,0.2-0.5,0.4-0.8,0.6c-0.3,0.2-0.7,0.3-1,0.5
			c-0.4,0.1-0.8,0.2-1.3,0.2c-0.8,0-1.6-0.2-2.1-0.5c-0.6-0.4-1.1-0.7-1.5-1.3c-0.4-0.6-0.7-1.2-0.8-1.9c-0.2-0.7-0.3-1.4-0.3-2.1
			s0.1-1.4,0.3-2.1c0.2-0.7,0.5-1.3,0.8-1.8s0.8-0.9,1.5-1.2c0.6-0.3,1.3-0.5,2.1-0.5c0.9,0,1.8,0.2,2.3,0.5c0.6,0.4,1,0.7,1.3,1.2
			l0,0V449h2.1v16.2h-2L399.8,463.7L399.8,463.7z M393.5,459.7c0,0.5,0,0.9,0.2,1.4c0.1,0.5,0.3,0.9,0.6,1.3c0.3,0.4,0.6,0.7,0.9,1
			s0.8,0.4,1.4,0.4s1-0.1,1.5-0.4c0.5-0.3,0.7-0.6,1-0.9s0.5-0.8,0.6-1.3c0.1-0.5,0.2-0.9,0.2-1.4c0-0.6-0.1-1-0.2-1.5
			c-0.1-0.5-0.4-0.9-0.6-1.3c-0.3-0.4-0.6-0.7-1-0.9c-0.4-0.3-0.8-0.4-1.4-0.4c-0.6,0-1,0.1-1.4,0.4c-0.4,0.3-0.7,0.6-0.9,0.9
			c-0.3,0.4-0.4,0.8-0.6,1.3C393.6,458.7,393.5,459.2,393.5,459.7z"/>
		<path fill="#6D6A63" d="M405.9,455c0.5-0.3,1-0.6,1.7-0.7c0.6-0.2,1.2-0.3,2-0.3c1.6,0,2.7,0.4,3.4,1.1s1,1.9,1,3.4v4.6
			c0,0.7,0,1.1,0,1.4s0,0.6,0.1,0.7h-1.9v-1.4l0,0c-0.1,0.2-0.3,0.4-0.5,0.6c-0.2,0.2-0.5,0.4-0.7,0.6c-0.3,0.2-0.6,0.3-0.9,0.4
			c-0.4,0.1-0.7,0.2-1.2,0.2c-0.6,0-1.1-0.1-1.6-0.2c-0.5-0.1-0.9-0.4-1.3-0.7c-0.4-0.3-0.7-0.7-0.8-1c-0.2-0.5-0.3-0.9-0.3-1.6
			s0.2-1.3,0.5-1.7c0.4-0.5,0.7-0.8,1.2-1.1c0.5-0.3,1-0.5,1.7-0.6c0.6-0.1,1.1-0.2,1.7-0.2c0.4,0,0.7,0,1.1,0s0.7,0,1.1,0
			c0-0.9-0.2-1.7-0.6-2.1c-0.4-0.5-1.1-0.7-2.1-0.7c-0.6,0-1.1,0.1-1.7,0.3c-0.6,0.2-1,0.5-1.5,0.8L405.9,455z M411.9,459.9
			c-0.2,0-0.5,0-0.7,0c-0.2,0-0.5,0-0.7,0c-0.3,0-0.7,0-1,0.1c-0.5,0-0.8,0.1-1.2,0.3s-0.7,0.4-1,0.7c-0.3,0.3-0.5,0.7-0.5,1.1
			c0,0.3,0.1,0.6,0.2,0.7c0.1,0.2,0.3,0.4,0.5,0.6c0.2,0.2,0.4,0.3,0.7,0.4c0.3,0.1,0.5,0.1,0.7,0.1c1,0,1.8-0.3,2.2-0.8
			c0.6-0.6,0.7-1.2,0.7-2.1L411.9,459.9L411.9,459.9z"/>
		<path fill="#6D6A63" d="M423.3,455.8h-2.9v6c0,0.7,0.2,1.1,0.5,1.5c0.4,0.4,0.7,0.5,1.2,0.5c0.3,0,0.6,0,0.8-0.1
			c0.2-0.1,0.4-0.2,0.6-0.3v1.7c-0.2,0.1-0.5,0.2-0.7,0.2c-0.3,0.1-0.6,0.1-0.9,0.1c-1,0-1.9-0.3-2.4-0.7c-0.6-0.5-0.9-1.3-0.9-2.4
			v-6.4H416v-1.6h2.4v-2.5l2.1-0.7v3.2h2.9L423.3,455.8L423.3,455.8z"/>
		<path fill="#6D6A63" d="M428.4,451.7h-2.2v-2.2h2.2V451.7z M426.2,454.2h2.1v10.9h-2.1V454.2z"/>
		<path fill="#6D6A63" d="M431.2,459.7c0-0.8,0.1-1.6,0.4-2.3c0.3-0.7,0.7-1.3,1.1-1.8c0.5-0.5,1.1-0.9,1.8-1.2
			c0.7-0.3,1.4-0.5,2.3-0.5c0.8,0,1.6,0.2,2.2,0.5c0.7,0.3,1.3,0.7,1.8,1.2c0.5,0.5,0.8,1.1,1.1,1.8c0.3,0.7,0.4,1.5,0.4,2.3
			c0,0.7-0.1,1.5-0.4,2.2c-0.3,0.7-0.7,1.3-1.1,1.9c-0.5,0.6-1.1,0.9-1.8,1.2c-0.7,0.3-1.4,0.5-2.2,0.5c-0.8,0-1.6-0.2-2.2-0.5
			c-0.7-0.3-1.3-0.7-1.8-1.2c-0.5-0.6-0.8-1.1-1.1-1.9C431.3,461.2,431.2,460.5,431.2,459.7z M433.3,459.7c0,0.5,0.1,0.9,0.2,1.5
			c0.1,0.5,0.4,0.9,0.7,1.3c0.3,0.4,0.7,0.7,1,0.9c0.5,0.3,0.9,0.4,1.6,0.4c0.6,0,1.1-0.1,1.5-0.4c0.5-0.3,0.7-0.6,1-0.9
			c0.3-0.4,0.5-0.8,0.7-1.3c0.1-0.5,0.2-0.9,0.2-1.5c0-0.6-0.1-1-0.3-1.5c-0.2-0.5-0.4-0.9-0.7-1.3c-0.3-0.4-0.7-0.7-1.1-0.9
			c-0.5-0.2-0.9-0.4-1.4-0.4c-0.6,0-1,0.1-1.5,0.4c-0.5,0.3-0.7,0.6-1.1,0.9c-0.3,0.4-0.6,0.8-0.7,1.3
			C433.4,458.6,433.3,459.2,433.3,459.7z"/>
		<path fill="#6D6A63" d="M445,454.2h2v1.8l0,0c0.3-0.7,0.7-1.1,1.4-1.5s1.4-0.6,2.1-0.6c1.4,0,2.4,0.4,3.1,1.2c0.7,0.8,1,2,1,3.5
			v6.5h-2.1v-5.7c0-1.3-0.2-2.2-0.5-2.9c-0.4-0.7-0.9-0.9-1.9-1c-0.6,0-1,0.1-1.5,0.4c-0.5,0.2-0.7,0.6-1,0.9
			c-0.3,0.4-0.5,0.8-0.6,1.4c-0.1,0.6-0.2,1.2-0.2,1.9v5h-2V454.2L445,454.2z"/>
		<path fill="#6D6A63" d="M457.5,463c0.2,0.1,0.4,0.3,0.7,0.4c0.2,0.1,0.5,0.2,0.7,0.3c0.2,0.1,0.5,0.1,0.7,0.2c0.2,0,0.4,0,0.6,0
			c0.2,0,0.5,0,0.7-0.1c0.3-0.1,0.5-0.1,0.7-0.3c0.2-0.1,0.4-0.3,0.5-0.5c0.1-0.2,0.2-0.5,0.2-0.7c0-0.4-0.1-0.7-0.4-0.8
			s-0.6-0.5-0.8-0.7c-0.4-0.2-0.7-0.4-1.1-0.6s-0.7-0.4-1.1-0.7c-0.4-0.3-0.7-0.6-0.8-0.9c-0.3-0.4-0.4-0.7-0.4-1.3
			c0-0.6,0.1-1,0.3-1.5s0.5-0.7,0.8-1c0.4-0.3,0.7-0.5,1.2-0.7c0.5-0.1,0.9-0.2,1.5-0.2c0.5,0,0.9,0,1.3,0.1
			c0.4,0.1,0.8,0.2,1.2,0.3l-0.2,1.8c-0.1-0.1-0.3-0.1-0.5-0.2c-0.2-0.1-0.4-0.1-0.6-0.2c-0.2-0.1-0.4-0.1-0.6-0.1
			c-0.2,0-0.4,0-0.5,0c-0.6,0-0.9,0.1-1.4,0.3c-0.4,0.2-0.6,0.6-0.6,1c0,0.4,0.1,0.7,0.4,0.9s0.6,0.5,0.8,0.7
			c0.4,0.2,0.7,0.4,1.1,0.6c0.4,0.2,0.7,0.4,1.1,0.7c0.4,0.3,0.7,0.6,0.8,0.9c0.3,0.4,0.4,0.8,0.4,1.4c0,0.6-0.1,1.1-0.3,1.5
			c-0.2,0.5-0.5,0.7-0.8,1c-0.4,0.3-0.7,0.5-1.2,0.7c-0.5,0.1-0.9,0.2-1.4,0.2c-0.6,0-1,0-1.6-0.1c-0.6-0.1-1-0.3-1.5-0.5L457.5,463
			z"/>
		<path fill="#6D6A63" d="M472.9,449.9h1.9l-5.1,15.5h-1.9L472.9,449.9z"/>
		<path fill="#6D6A63" d="M478.4,450.1h7.9v1.9h-5.8v4.4h5.6v1.9h-5.6v6.8h-2.1V450.1z"/>
		<path fill="#6D6A63" d="M488.3,459.7c0-0.8,0.1-1.6,0.4-2.3c0.3-0.7,0.7-1.3,1.1-1.8c0.5-0.5,1.1-0.9,1.8-1.2
			c0.7-0.3,1.4-0.5,2.3-0.5c0.8,0,1.6,0.2,2.2,0.5c0.7,0.3,1.3,0.7,1.8,1.2c0.5,0.5,0.8,1.1,1.1,1.8c0.3,0.7,0.4,1.5,0.4,2.3
			c0,0.7-0.1,1.5-0.4,2.2c-0.3,0.7-0.7,1.3-1.1,1.9c-0.5,0.6-1.1,0.9-1.8,1.2c-0.7,0.3-1.4,0.5-2.2,0.5c-0.8,0-1.6-0.2-2.2-0.5
			c-0.7-0.3-1.3-0.7-1.8-1.2c-0.5-0.6-0.8-1.1-1.1-1.9C488.5,461.2,488.3,460.5,488.3,459.7z M490.5,459.7c0,0.5,0.1,0.9,0.2,1.5
			c0.1,0.5,0.4,0.9,0.7,1.3c0.3,0.4,0.7,0.7,1,0.9c0.5,0.3,0.9,0.4,1.6,0.4c0.6,0,1.1-0.1,1.5-0.4c0.5-0.3,0.7-0.6,1-0.9
			c0.3-0.4,0.5-0.8,0.7-1.3c0.1-0.5,0.2-0.9,0.2-1.5c0-0.6-0.1-1-0.3-1.5c-0.2-0.5-0.4-0.9-0.7-1.3c-0.3-0.4-0.7-0.7-1.1-0.9
			c-0.5-0.2-0.9-0.4-1.4-0.4c-0.6,0-1,0.1-1.5,0.4c-0.5,0.2-0.7,0.6-1.1,0.9c-0.3,0.4-0.6,0.8-0.7,1.3
			C490.6,458.6,490.5,459.2,490.5,459.7z"/>
		<path fill="#6D6A63" d="M502.1,454.2h2v1.8l0,0c0.3-0.7,0.7-1.1,1.4-1.5s1.4-0.6,2.1-0.6c1.4,0,2.4,0.4,3.1,1.2c0.7,0.8,1,2,1,3.5
			v6.5h-2.1v-5.7c0-1.3-0.2-2.2-0.5-2.9c-0.4-0.7-0.9-0.9-1.9-1c-0.6,0-1,0.1-1.5,0.4c-0.5,0.2-0.7,0.6-1,0.9
			c-0.3,0.4-0.5,0.8-0.6,1.4c-0.1,0.6-0.2,1.2-0.2,1.9v5h-2.1L502.1,454.2L502.1,454.2z"/>
		<path fill="#6D6A63" d="M523.2,463.7L523.2,463.7c-0.2,0.2-0.4,0.4-0.6,0.7c-0.2,0.2-0.5,0.4-0.8,0.6c-0.3,0.2-0.7,0.3-1,0.5
			c-0.4,0.1-0.8,0.2-1.3,0.2c-0.8,0-1.6-0.2-2.1-0.5c-0.6-0.4-1.1-0.7-1.5-1.3c-0.4-0.6-0.7-1.2-0.8-1.9c-0.2-0.7-0.3-1.4-0.3-2.1
			s0.1-1.4,0.3-2.1c0.2-0.7,0.5-1.3,0.8-1.8s0.8-0.9,1.5-1.2c0.6-0.3,1.3-0.5,2.1-0.5c0.9,0,1.8,0.2,2.3,0.5c0.6,0.4,1,0.7,1.3,1.2
			l0,0V449h2.1v16.2h-2L523.2,463.7L523.2,463.7z M516.9,459.7c0,0.5,0,0.9,0.2,1.4c0.1,0.5,0.3,0.9,0.6,1.3c0.3,0.4,0.6,0.7,0.9,1
			c0.4,0.3,0.8,0.4,1.4,0.4s1-0.1,1.5-0.4c0.4-0.3,0.7-0.6,1-0.9c0.3-0.4,0.5-0.8,0.6-1.3c0.1-0.5,0.2-0.9,0.2-1.4
			c0-0.6-0.1-1-0.2-1.5c-0.1-0.5-0.4-0.9-0.6-1.3c-0.3-0.4-0.6-0.7-1-0.9c-0.4-0.3-0.8-0.4-1.4-0.4s-1,0.1-1.4,0.4
			c-0.4,0.3-0.7,0.6-0.9,0.9c-0.3,0.4-0.4,0.8-0.6,1.3C516.9,458.6,516.9,459.2,516.9,459.7z"/>
		<path fill="#6D6A63" d="M529.3,455c0.5-0.3,1-0.6,1.7-0.7c0.6-0.2,1.2-0.3,2-0.3c1.6,0,2.7,0.4,3.4,1.1s1,1.9,1,3.4v4.6
			c0,0.7,0,1.1,0,1.4s0,0.6,0.1,0.7h-1.9v-1.4l0,0c-0.1,0.2-0.3,0.4-0.5,0.6c-0.2,0.2-0.5,0.4-0.7,0.6c-0.3,0.2-0.6,0.3-0.9,0.4
			c-0.4,0.1-0.7,0.2-1.2,0.2c-0.6,0-1.1-0.1-1.6-0.2c-0.5-0.1-0.9-0.4-1.3-0.7c-0.4-0.3-0.7-0.7-0.8-1c-0.2-0.5-0.3-0.9-0.3-1.6
			s0.2-1.3,0.5-1.7c0.4-0.5,0.7-0.8,1.2-1.1c0.5-0.3,1-0.5,1.7-0.6c0.6-0.1,1.1-0.2,1.7-0.2c0.4,0,0.7,0,1.1,0c0.4,0,0.7,0,1.1,0
			c0-0.9-0.2-1.7-0.6-2.1c-0.4-0.5-1.1-0.7-2.1-0.7c-0.6,0-1.1,0.1-1.7,0.3c-0.6,0.2-1,0.5-1.5,0.8L529.3,455z M535.3,459.9
			c-0.2,0-0.5,0-0.7,0c-0.2,0-0.5,0-0.7,0c-0.3,0-0.7,0-1,0.1c-0.5,0-0.8,0.1-1.2,0.3s-0.7,0.4-1,0.7c-0.3,0.3-0.5,0.7-0.5,1.1
			c0,0.3,0.1,0.6,0.2,0.7c0.1,0.2,0.3,0.4,0.5,0.6c0.2,0.2,0.4,0.3,0.7,0.4c0.3,0.1,0.5,0.1,0.7,0.1c1,0,1.8-0.3,2.2-0.8
			c0.6-0.6,0.7-1.2,0.7-2.1L535.3,459.9L535.3,459.9z"/>
		<path fill="#6D6A63" d="M540.1,463.4l6.3-7.6h-6v-1.6h8.4v1.8l-6.3,7.6h6.5v1.6h-8.9L540.1,463.4L540.1,463.4z"/>
		<path fill="#6D6A63" d="M554.2,451.7H552v-2.2h2.2V451.7z M552.1,454.2h2.1v10.9h-2.1V454.2z"/>
		<path fill="#6D6A63" d="M556.7,459.7c0-0.8,0.1-1.6,0.4-2.3c0.3-0.7,0.7-1.3,1.1-1.8s1.1-0.9,1.8-1.2c0.7-0.3,1.4-0.5,2.3-0.5
			c0.8,0,1.6,0.2,2.2,0.5c0.7,0.3,1.3,0.7,1.8,1.2c0.5,0.5,0.8,1.1,1.1,1.8c0.3,0.7,0.4,1.5,0.4,2.3c0,0.7-0.1,1.5-0.4,2.2
			c-0.3,0.7-0.7,1.3-1.1,1.9c-0.5,0.6-1.1,0.9-1.8,1.2c-0.7,0.3-1.4,0.5-2.2,0.5s-1.6-0.2-2.2-0.5c-0.7-0.3-1.3-0.7-1.8-1.2
			c-0.5-0.6-0.8-1.1-1.1-1.9C556.9,461.2,556.7,460.5,556.7,459.7z M558.8,459.7c0,0.5,0.1,0.9,0.2,1.5c0.1,0.5,0.4,0.9,0.7,1.3
			s0.7,0.7,1,0.9c0.5,0.3,0.9,0.4,1.6,0.4c0.6,0,1.1-0.1,1.5-0.4c0.5-0.3,0.7-0.6,1-0.9s0.5-0.8,0.7-1.3c0.1-0.5,0.2-0.9,0.2-1.5
			c0-0.6-0.1-1-0.3-1.5c-0.2-0.5-0.4-0.9-0.7-1.3s-0.7-0.7-1.1-0.9c-0.5-0.2-0.9-0.4-1.4-0.4c-0.6,0-1,0.1-1.5,0.4s-0.7,0.6-1.1,0.9
			c-0.3,0.4-0.6,0.8-0.7,1.3C558.9,458.6,558.8,459.2,558.8,459.7z"/>
		<path fill="#6D6A63" d="M570.5,454.2h2v1.8l0,0c0.3-0.7,0.7-1.1,1.4-1.5c0.7-0.4,1.4-0.6,2.1-0.6c1.4,0,2.4,0.4,3.1,1.2
			c0.7,0.8,1,2,1,3.5v6.5h-2.1v-5.7c0-1.3-0.2-2.2-0.5-2.9c-0.4-0.7-0.9-0.9-1.9-1c-0.6,0-1,0.1-1.5,0.4c-0.5,0.2-0.7,0.6-1,0.9
			s-0.5,0.8-0.6,1.4c-0.1,0.6-0.2,1.2-0.2,1.9v5h-2.1L570.5,454.2L570.5,454.2z"/>
		<path fill="#6D6A63" d="M585.9,451.7h-2.2v-2.2h2.2V451.7z M583.8,454.2h2.1v10.9h-2.1V454.2z"/>
	</g>
</g>
<g id="Ebene_2">
	<path id="smile-dark-orange-CMYK" fill="#EA5829" d="M509.7,445.4c0,0.3,0,0.6,0,0.8c0,20.1-16.5,36.3-36.5,36.3
		c-20.1,0-36.3-16.3-36.3-36.3c0-0.3,0-0.6,0-0.9V411c0-4.9-1.1-8.5-3.3-11c-2.2-2.5-5.2-3.8-8.9-3.8c-3.8,0-7.1,1.6-9.6,4.6
		c-2.6,3-3.9,7.3-3.9,12.6v31.9h-12.3V411c0-4.9-1.1-8.5-3.3-11s-5.2-3.8-8.9-3.8c-3.8,0-7.1,1.6-9.6,4.6c-2.6,3-3.9,7.3-3.9,12.6
		v31.9h-12.3v-58.9h12.3v6.1c0.5-0.6,1.2-1.2,2-2.1c0.8-0.8,2.7-1.9,5.4-3.2c2.7-1.4,5.6-2,8.6-2c2.3,0,4.6,0.3,6.7,1
		s3.8,1.5,5.1,2.5c1.3,1,2.4,1.9,3.3,3c0.9,1,1.6,1.8,2,2.5l0.6,1c0.1-0.3,0.5-0.6,0.8-1c0.4-0.5,1.2-1.2,2.5-2.4
		c1.2-1.2,2.6-2.1,4-3c1.4-0.8,3.3-1.6,5.6-2.3c2.3-0.7,4.8-1,7.3-1c6.9,0,12.2,2.2,16.2,6.6s5.9,10.8,5.9,19.2l-0.3,34.3l0,0
		c0,0.3,0,0.6,0,0.9c0,13.4,10.9,24.4,24.4,24.4s24.4-10.9,24.4-24.4c0-0.3,0-0.6,0-0.8l0,0v-86h12.2V445.4L509.7,445.4z
		 M334.6,428.1c0-2-1-3.6-3-4.8s-4.4-2.2-7.3-3c-2.9-0.8-5.8-1.7-8.6-2.9c-2.9-1.1-5.3-2.9-7.3-5.4c-2-2.5-3-5.8-3-9.7
		c0-4.8,1.9-8.9,5.8-12.2s8.8-5.1,15-5.1c2.4,0,4.8,0.3,7,0.8c2.3,0.6,4.1,1.2,5.6,2c1.4,0.8,2.7,1.6,3.8,2.3
		c1.1,0.8,1.9,1.5,2.3,2.1l0.7,0.8l-7.6,8c-0.3-0.4-0.8-0.8-1.4-1.4c-0.6-0.6-1.8-1.3-3.8-2.3c-1.9-0.9-3.9-1.4-5.9-1.4
		c-2.4,0-4.3,0.6-5.8,1.9c-1.5,1.2-2.2,2.7-2.2,4.5c0,2,1,3.6,3,4.8c2,1.2,4.4,2.2,7.3,3c2.9,0.8,5.7,1.8,8.6,2.9
		c2.9,1.1,5.3,2.9,7.3,5.4c2,2.5,3,5.8,3,9.7c0,5.5-2,10-6,13.4c-4,3.5-9.5,5.2-16.5,5.2c-2.8,0-5.4-0.3-8-1
		c-2.6-0.6-4.7-1.5-6.3-2.4s-3.1-2.1-4.4-3c-1.3-1-2.2-1.7-2.7-2.5l-1-1l7.6-7.6c0.4,0.5,0.9,1,1.6,1.7c0.7,0.7,2.3,1.6,4.7,2.9
		c2.4,1.2,5,1.7,7.6,1.7c3,0,5.4-0.7,7.2-2.1C333.8,432.1,334.6,430.3,334.6,428.1z M478.4,386.5v58.9h-12.3v-58.9H478.4z
		 M479.7,366.8c0,2.1-0.7,3.9-2.1,5.2c-1.4,1.4-3.2,2.1-5.2,2.1c-2.1,0-3.9-0.7-5.2-2.1c-1.4-1.4-2.1-3.2-2.1-5.2s0.7-3.9,2.1-5.2
		c1.4-1.4,3.2-2.1,5.2-2.1c2.1,0,3.9,0.7,5.2,2.1C479,363,479.7,364.7,479.7,366.8z M582.6,420.2h-46c0.6,4.1,2.7,7.8,6.2,10.8
		c3.4,3,7.6,4.5,12.3,4.5c3.4,0,6.6-0.8,9.6-2.3c3-1.6,5.1-3,6.3-4.5l1.9-2.3l8,8c-0.3,0.3-0.6,0.8-1.1,1.4s-1.6,1.6-3.2,2.9
		c-1.6,1.4-3.4,2.6-5.2,3.6c-1.8,1-4.2,2-7.2,2.9c-2.9,0.9-6,1.4-9.1,1.4c-8.4,0-15.5-3-21.6-9.2c-6-6.2-9.1-13.5-9.1-22.1
		c0-8.3,2.9-15.4,8.8-21.3c5.9-5.9,13-8.8,21.2-8.8s15.1,2.7,20.6,8.2c5.5,5.5,8.2,12.4,8.2,20.7L582.6,420.2z M554.4,395.7
		c-4.4,0-8.2,1.3-11.1,4c-3,2.6-5.1,6-6.1,10.2h34.1c-0.7-4.1-2.6-7.5-5.6-10.2C562.7,397,559,395.7,554.4,395.7z"/>
</g>
</svg>
