<svg width="74" height="21" viewBox="0 0 74 21" fill="none" xmlns="http://www.w3.org/2000/svg">
<path d="M63.6059 15.7664H59.8658L63.3454 12.1129L61.1921 9.85118V6.24136L65.0852 10.3075L67.4116 7.84998L66.825 7.41548C65.7155 6.58931 64.6498 5.45891 64.6498 3.89311C64.6498 1.58767 66.477 0 68.9337 0C71.0214 0 73.1957 1.43555 73.1957 4.02336C73.1957 5.41519 72.2393 6.58932 71.4996 7.37267L71.2601 7.63319L71.3685 7.69877C72.978 8.89476 74 10.0033 74 11.9171C74 13.9829 72.3476 16.0488 69.3253 16.0488C67.673 16.0488 66.3459 15.2664 65.1936 14.0913L63.6059 15.7664ZM69.2807 13.5266C70.412 13.5266 71.1298 12.6348 71.1298 11.7431C71.1298 10.8304 70.6297 10.2429 69.8901 9.69906L69.564 9.46041L66.9325 12.2441C67.6721 13.0265 68.3461 13.5266 69.2807 13.5266ZM70.4557 3.93774C70.4557 2.89387 69.6724 2.3938 68.9546 2.3938C68.0419 2.3938 67.3888 3.04599 67.3888 3.87216C67.3888 4.4369 67.6502 4.9807 68.368 5.50263L69.1286 6.06738L69.5421 5.61103C69.9338 5.22026 70.4557 4.58993 70.4557 3.93774Z" fill="#009ACE"/>
<path d="M60.1191 5.81504V8.27078C59.8549 8.22979 59.5707 8.20975 59.2665 8.20975C58.4749 8.20975 57.8054 8.47391 57.3381 8.96032C56.8918 9.4276 56.6277 10.0561 56.6277 11.1728V15.7801H53.9888V5.85512H56.4446V7.15404C56.5457 7.03198 56.6477 6.91083 56.7688 6.78877C57.4183 6.13932 58.2909 5.75401 59.2856 5.73306C59.5716 5.73397 59.8558 5.75401 60.1191 5.81504Z" fill="#009ACE"/>
<path d="M52.7938 5.85516V15.7801H50.3581V14.8465C49.5665 15.618 48.5108 16.0643 47.3139 16.0643C44.4319 16.0643 42.2603 13.7507 42.2603 10.8277C42.2603 7.90464 44.4319 5.591 47.3139 5.591C48.5117 5.591 49.5665 6.03733 50.3581 6.80885V5.85516H52.7938ZM50.257 10.8277C50.257 9.24455 49.1411 8.06769 47.6181 8.06769C46.0961 8.06769 44.9793 9.24455 44.9793 10.8277C44.9793 12.4108 46.0961 13.5876 47.6181 13.5876C49.1411 13.5885 50.257 12.4108 50.257 10.8277Z" fill="#009ACE"/>
<path d="M41.4087 10.8076C41.4087 13.7306 39.2371 16.0443 36.3551 16.0443C35.2593 16.0443 34.2847 15.659 33.5141 15.0095V20.9357H30.8752V5.85515H33.3109V6.7888C34.1025 6.01728 35.1582 5.57095 36.3551 5.57095C39.2371 5.57095 41.4087 7.88459 41.4087 10.8076ZM38.6888 10.8076C38.6888 9.2245 37.5729 8.04764 36.0499 8.04764C34.5279 8.04764 33.4111 9.2245 33.4111 10.8076C33.4111 12.3907 34.5279 13.5676 36.0499 13.5676C37.5729 13.5676 38.6888 12.3907 38.6888 10.8076Z" fill="#009ACE"/>
<path d="M22.7046 13.2634L25.3134 12.8981C25.4172 13.4055 25.9137 13.7507 26.4311 13.7507C26.9694 13.7507 27.3419 13.4055 27.3419 12.9181C27.3419 12.5119 27.0933 12.2486 26.5349 12.0655L25.3963 11.6802C23.5536 11.0508 22.8495 9.87397 22.8495 8.61513C22.8495 6.93091 24.3606 5.591 26.3691 5.591C27.9422 5.591 29.2466 6.44359 29.702 7.64048L27.2181 8.5541C27.1142 8.1688 26.7626 7.90464 26.3691 7.90464C25.9137 7.90464 25.5821 8.1688 25.5821 8.5541C25.5821 8.87928 25.8098 9.10245 26.3063 9.26459L27.4039 9.62985C29.4324 10.2993 30.0746 11.6793 30.0746 12.8571C30.0746 14.6233 28.5215 16.0643 26.4311 16.0643C24.5473 16.0643 22.9743 14.8665 22.7046 13.2634Z" fill="#009ACE"/>
<path d="M21.7774 5.85516V15.7801H19.3417V14.8465C18.5501 15.618 17.4944 16.0643 16.2975 16.0643C13.4155 16.0643 11.2439 13.7507 11.2439 10.8277C11.2439 7.90464 13.4155 5.591 16.2975 5.591C17.4953 5.591 18.5501 6.03733 19.3417 6.80885V5.85516H21.7774ZM19.2406 10.8277C19.2406 9.24455 18.1238 8.06769 16.6017 8.06769C15.0796 8.06769 13.9629 9.24455 13.9629 10.8277C13.9629 12.4108 15.0787 13.5876 16.6017 13.5876C18.1247 13.5876 19.2406 12.4108 19.2406 10.8277Z" fill="#009ACE"/>
<path d="M2.84195 0.936371V6.56653L8.48395 0.936371H12.0564L5.35872 7.57032L12.3406 15.7792H8.93119L3.47137 9.22357L2.84195 9.8539V15.7792H0V0.936371H2.84195Z" fill="#009ACE"/>
</svg>
