<svg width="249" height="71" viewBox="0 0 249 71" fill="none" xmlns="http://www.w3.org/2000/svg">
<path d="M214.025 53.052H201.441L213.149 40.7583L205.903 33.1479V21.0013L219.003 34.6835L226.831 26.4141L224.857 24.9521C221.124 22.1722 217.538 18.3685 217.538 13.0998C217.538 5.34228 223.686 0 231.953 0C238.978 0 246.294 4.83043 246.294 13.5381C246.294 18.2214 243.075 22.1722 240.587 24.8081L239.781 25.6846L240.145 25.9053C245.561 29.9297 249 33.6597 249 40.0993C249 47.0507 243.44 54.0021 233.27 54.0021C227.711 54.0021 223.245 51.3693 219.368 47.4154L214.025 53.052ZM233.12 45.5151C236.927 45.5151 239.342 42.5145 239.342 39.5139C239.342 36.4428 237.66 34.4658 235.171 32.636L234.074 31.833L225.219 41.1996C227.708 43.8325 229.976 45.5151 233.12 45.5151ZM237.074 13.25C237.074 9.73748 234.438 8.0548 232.023 8.0548C228.952 8.0548 226.754 10.2493 226.754 13.0293C226.754 14.9296 227.634 16.7594 230.049 18.5156L232.608 20.4159L234 18.8804C235.318 17.5655 237.074 15.4445 237.074 13.25Z" fill="white"/>
<path d="M202.293 19.5668V27.8301C201.404 27.6921 200.447 27.6247 199.424 27.6247C196.76 27.6247 194.507 28.5136 192.935 30.1503C191.433 31.7226 190.544 33.8374 190.544 37.5951V53.0979H181.665V19.7017H189.928V24.0724C190.269 23.6617 190.612 23.254 191.02 22.8433C193.205 20.658 196.141 19.3615 199.488 19.291C200.45 19.2941 201.407 19.3615 202.293 19.5668Z" fill="white"/>
<path d="M177.644 19.7018V53.098H169.448V49.9564C166.785 52.5524 163.232 54.0543 159.205 54.0543C149.507 54.0543 142.2 46.2692 142.2 36.4336C142.2 26.5981 149.507 18.813 159.205 18.813C163.235 18.813 166.785 20.3148 169.448 22.9109V19.7018H177.644ZM169.108 36.4336C169.108 31.1067 165.353 27.1467 160.229 27.1467C155.107 27.1467 151.349 31.1067 151.349 36.4336C151.349 41.7606 155.107 45.7206 160.229 45.7206C165.353 45.7236 169.108 41.7606 169.108 36.4336Z" fill="white"/>
<path d="M139.334 36.3661C139.334 46.2017 132.028 53.9868 122.33 53.9868C118.643 53.9868 115.363 52.6903 112.77 50.5049V70.4458H103.891V19.7018H112.087V22.8434C114.75 20.2473 118.303 18.7455 122.33 18.7455C132.028 18.7455 139.334 26.5306 139.334 36.3661ZM130.182 36.3661C130.182 31.0392 126.428 27.0792 121.303 27.0792C116.182 27.0792 112.424 31.0392 112.424 36.3661C112.424 41.6931 116.182 45.653 121.303 45.653C126.428 45.653 130.182 41.6931 130.182 36.3661Z" fill="white"/>
<path d="M76.398 44.6294L85.1762 43.4004C85.5256 45.1076 87.196 46.2692 88.9369 46.2692C90.7483 46.2692 92.0019 45.1076 92.0019 43.4678C92.0019 42.1008 91.1651 41.215 89.2863 40.599L85.4551 39.3025C79.2546 37.1845 76.8853 33.2246 76.8853 28.9888C76.8853 23.3216 81.9702 18.813 88.7285 18.813C94.0217 18.813 98.4108 21.6818 99.9433 25.7092L91.585 28.7834C91.2356 27.4869 90.0526 26.5981 88.7285 26.5981C87.196 26.5981 86.0803 27.4869 86.0803 28.7834C86.0803 29.8776 86.8466 30.6285 88.517 31.1741L92.2103 32.4032C99.036 34.6559 101.197 39.2994 101.197 43.2624C101.197 49.2055 95.971 54.0543 88.9369 54.0543C82.5985 54.0543 77.3052 50.0238 76.398 44.6294Z" fill="white"/>
<path d="M73.2778 19.7018V53.098H65.082V49.9564C62.4185 52.5524 58.8662 54.0543 54.8388 54.0543C45.1412 54.0543 37.8342 46.2692 37.8342 36.4336C37.8342 26.5981 45.1412 18.813 54.8388 18.813C58.8693 18.813 62.4185 20.3148 65.082 22.9109V19.7018H73.2778ZM64.7418 36.4336C64.7418 31.1067 60.9841 27.1467 55.8625 27.1467C50.7409 27.1467 46.9832 31.1067 46.9832 36.4336C46.9832 41.7606 50.7378 45.7206 55.8625 45.7206C60.9872 45.7206 64.7418 41.7606 64.7418 36.4336Z" fill="white"/>
<path d="M9.56278 3.15076V22.0955L28.5473 3.15076H40.5682L18.0314 25.4731L41.5245 53.0948H30.0523L11.6807 31.0361L9.56278 33.157V53.0948H0V3.15076H9.56278Z" fill="white"/>
</svg>
