<?xml version="1.0" encoding="UTF-8"?>
<svg xmlns="http://www.w3.org/2000/svg" xmlns:xlink="http://www.w3.org/1999/xlink" width="876.615385" height="259" viewBox="0 0 876.615385 259">
<path fill-rule="nonzero" fill="rgb(100%, 100%, 100%)" fill-opacity="1" d="M 693.125 259 L 693.125 0 L 434.421875 0 L 434.421875 156.695312 L 466.101562 156.695312 C 481.242188 156.695312 492.699219 164.265625 492.699219 177.613281 C 492.699219 194.25 479.746094 202.21875 471.777344 203.613281 L 471.777344 203.914062 C 485.226562 204.3125 498.972656 212.679688 498.972656 229.316406 C 498.972656 245.949219 485.425781 258.101562 465.503906 258.898438 L 464.308594 258.898438 L 496.980469 258.898438 L 496.980469 255.113281 C 510.128906 253.519531 509.53125 254.21875 509.53125 240.671875 L 509.53125 174.925781 C 509.53125 161.375 510.128906 162.074219 496.980469 160.480469 L 496.980469 156.695312 L 533.042969 156.695312 C 555.355469 156.695312 567.609375 162.273438 567.609375 178.910156 C 567.609375 191.160156 558.144531 200.226562 546.589844 203.613281 L 546.589844 203.914062 C 562.03125 204.3125 574.480469 214.472656 574.480469 229.8125 C 574.480469 250.234375 558.84375 259.101562 537.425781 259.101562 L 693.222656 259.101562 Z M 482.4375 85.96875 L 482.933594 86.167969 C 489.609375 91.148438 493.894531 95.828125 493.894531 103.898438 C 493.894531 112.566406 486.921875 121.230469 474.269531 121.230469 C 467.296875 121.230469 461.816406 117.945312 456.9375 113.0625 L 450.359375 120.136719 L 434.621094 120.136719 L 449.265625 104.796875 L 440.199219 95.230469 L 440.199219 80.089844 L 456.539062 97.226562 L 466.300781 86.964844 L 463.808594 85.171875 C 459.128906 81.785156 454.644531 77.003906 454.644531 70.429688 C 454.644531 60.765625 462.316406 54.089844 472.574219 54.089844 C 481.339844 54.089844 490.40625 60.066406 490.40625 70.925781 C 490.40625 76.804688 486.421875 81.683594 483.332031 84.972656 L 482.335938 86.066406 Z M 684.957031 204.808594 C 684.957031 230.808594 668.519531 252.824219 644.011719 259 L 616.421875 259 C 595.203125 253.121094 579.960938 233.398438 579.960938 209.789062 C 579.960938 178.210938 604.464844 155 634.847656 155 C 665.230469 155 684.957031 182.296875 684.957031 204.808594 Z M 668.320312 209.191406 C 668.320312 174.226562 649.492188 160.082031 631.660156 160.082031 C 606.855469 160.082031 596.597656 182.296875 596.597656 202.21875 C 596.597656 237.582031 614.726562 255.710938 633.554688 255.710938 C 660.75 255.710938 668.320312 228.816406 668.320312 209.191406 Z M 481.9375 103.300781 C 481.9375 99.617188 479.847656 96.925781 476.660156 94.734375 L 475.363281 93.738281 L 464.40625 105.492188 C 467.496094 108.679688 470.285156 110.773438 474.167969 110.773438 C 478.949219 110.773438 481.9375 106.988281 481.9375 103.300781 Z M 475.066406 77.402344 C 476.757812 75.808594 478.949219 73.21875 478.949219 70.429688 C 478.949219 66.046875 475.664062 63.953125 472.574219 63.953125 C 468.789062 63.953125 466 66.644531 466 70.128906 C 466 72.421875 467.097656 74.8125 470.183594 77.003906 L 473.371094 79.292969 L 475.066406 77.300781 Z M 460.523438 166.957031 L 448.566406 166.957031 L 448.566406 200.527344 L 455.542969 200.527344 C 467.792969 200.527344 478.453125 192.058594 478.453125 181.101562 C 478.453125 172.035156 472.175781 166.957031 460.523438 166.957031 Z M 459.925781 210.785156 L 448.566406 210.785156 L 448.566406 248.738281 L 462.316406 248.738281 C 473.871094 248.738281 483.730469 242.464844 483.730469 230.210938 C 483.730469 215.867188 471.480469 210.785156 459.925781 210.785156 Z M 531.945312 161.375 L 523.578125 161.375 L 523.578125 203.214844 L 534.636719 203.214844 C 543.003906 203.214844 552.867188 198.433594 552.867188 181.398438 C 552.867188 166.957031 545.890625 161.375 531.847656 161.375 Z M 532.941406 207.796875 L 523.578125 207.796875 L 523.578125 237.78125 C 523.578125 250.632812 526.167969 254.316406 538.320312 254.316406 C 551.472656 254.316406 557.746094 246.25 557.746094 231.804688 C 557.746094 214.171875 546.6875 207.796875 532.941406 207.796875 Z M 532.941406 207.796875 "/>
<path fill-rule="nonzero" fill="rgb(100%, 100%, 100%)" fill-opacity="1" d="M 435.71875 78.398438 L 435.71875 88.65625 C 434.621094 88.558594 433.425781 88.457031 432.132812 88.457031 C 428.84375 88.457031 426.054688 89.554688 424.0625 91.644531 C 422.269531 93.636719 421.175781 96.328125 421.175781 100.910156 L 421.175781 120.234375 L 410.015625 120.234375 L 410.015625 78.597656 L 420.277344 78.597656 L 420.277344 84.074219 C 420.277344 84.074219 421.175781 83.078125 421.574219 82.582031 C 424.261719 79.890625 427.949219 78.199219 432.03125 78.199219 C 433.226562 78.097656 434.523438 78.199219 435.617188 78.398438 Z M 435.71875 78.398438 "/>
<path fill-rule="nonzero" fill="rgb(100%, 100%, 100%)" fill-opacity="1" d="M 404.9375 78.496094 L 404.9375 120.136719 L 394.675781 120.136719 L 394.675781 116.25 C 391.390625 119.539062 386.90625 121.332031 381.824219 121.332031 C 369.773438 121.332031 360.609375 111.570312 360.609375 99.316406 C 360.609375 87.0625 369.773438 77.300781 381.824219 77.300781 C 386.804688 77.300781 391.191406 79.09375 394.675781 82.382812 L 394.675781 78.398438 L 404.9375 78.398438 Z M 394.277344 99.417969 C 394.277344 92.839844 389.597656 87.859375 383.121094 87.859375 C 376.644531 87.859375 371.964844 92.742188 371.964844 99.417969 C 371.964844 106.089844 376.644531 110.972656 383.121094 110.972656 C 389.597656 110.972656 394.277344 106.089844 394.277344 99.417969 Z M 394.277344 99.417969 "/>
<path fill-rule="nonzero" fill="rgb(100%, 100%, 100%)" fill-opacity="1" d="M 357.222656 99.316406 C 357.222656 111.570312 348.054688 121.332031 336.003906 121.332031 C 331.320312 121.332031 327.335938 119.738281 324.050781 116.949219 L 324.050781 141.953125 L 312.992188 141.953125 L 312.992188 78.597656 L 323.25 78.597656 L 323.25 82.480469 C 326.539062 79.292969 330.921875 77.402344 336.101562 77.402344 C 348.15625 77.402344 357.320312 87.164062 357.320312 99.417969 Z M 345.765625 99.316406 C 345.765625 92.742188 341.082031 87.761719 334.707031 87.761719 C 328.332031 87.761719 323.550781 92.742188 323.550781 99.316406 C 323.550781 105.890625 328.234375 110.871094 334.707031 110.871094 C 341.183594 110.871094 345.765625 105.992188 345.765625 99.316406 Z M 345.765625 99.316406 "/>
<path fill-rule="nonzero" fill="rgb(100%, 100%, 100%)" fill-opacity="1" d="M 278.722656 109.675781 L 289.679688 108.082031 C 290.179688 110.175781 292.273438 111.667969 294.363281 111.667969 C 296.457031 111.667969 298.148438 110.175781 298.148438 108.082031 C 298.148438 106.390625 297.054688 105.292969 294.761719 104.496094 L 289.980469 102.902344 C 282.308594 100.214844 279.222656 95.332031 279.222656 90.050781 C 279.222656 82.980469 285.597656 77.402344 293.964844 77.402344 C 300.539062 77.402344 306.019531 80.988281 307.910156 85.96875 L 297.550781 89.753906 C 297.054688 88.160156 295.558594 87.0625 293.964844 87.0625 C 291.972656 87.0625 290.675781 88.160156 290.675781 89.753906 C 290.675781 91.046875 291.675781 92.042969 293.765625 92.640625 L 298.449219 94.234375 C 307.015625 97.023438 309.703125 102.804688 309.703125 107.785156 C 309.703125 115.253906 303.230469 121.230469 294.464844 121.230469 C 286.691406 121.332031 279.917969 116.351562 278.824219 109.675781 Z M 278.722656 109.675781 "/>
<path fill-rule="nonzero" fill="rgb(100%, 100%, 100%)" fill-opacity="1" d="M 274.839844 78.496094 L 274.839844 120.136719 L 264.578125 120.136719 L 264.578125 116.25 C 261.292969 119.539062 256.90625 121.332031 251.726562 121.332031 C 239.675781 121.332031 230.511719 111.570312 230.511719 99.316406 C 230.511719 87.0625 239.675781 77.300781 251.726562 77.300781 C 256.707031 77.300781 261.09375 79.09375 264.578125 82.382812 L 264.578125 78.398438 L 274.839844 78.398438 Z M 264.179688 99.417969 C 264.179688 92.839844 259.5 87.859375 253.023438 87.859375 C 246.546875 87.859375 241.867188 92.742188 241.867188 99.417969 C 241.867188 106.089844 246.546875 110.972656 253.023438 110.972656 C 259.5 110.972656 264.179688 106.089844 264.179688 99.417969 Z M 264.179688 99.417969 "/>
<path fill-rule="nonzero" fill="rgb(100%, 100%, 100%)" fill-opacity="1" d="M 195.347656 57.875 L 195.347656 81.585938 L 219.054688 57.875 L 233.996094 57.875 L 206.003906 85.769531 L 235.292969 120.136719 L 220.945312 120.136719 L 198.035156 92.742188 L 195.347656 95.429688 L 195.347656 120.136719 L 183.492188 120.136719 L 183.492188 57.875 Z M 195.347656 57.875 "/>
</svg>
