<svg width="877" height="259" viewBox="0 0 877 259" fill="none" xmlns="http://www.w3.org/2000/svg">
<g clip-path="url(#clip0_1_78)">
<path d="M420.96 156.396H403.719L419.764 139.561L409.898 129.201V112.665L427.737 131.293L438.4 120.136L435.71 118.144C430.627 114.458 425.744 109.179 425.744 102.006C425.744 91.447 434.115 84.175 445.376 84.175C454.944 84.175 464.81 90.7497 464.81 102.604C464.81 108.979 460.425 114.359 457.037 117.945L455.94 119.14L456.439 119.439C463.813 124.918 468.398 129.998 468.398 138.764C468.398 148.228 460.824 157.691 446.971 157.691C439.397 157.691 433.417 154.105 428.036 148.726L420.86 156.496L420.96 156.396ZM446.971 146.136C452.153 146.136 455.542 142.052 455.542 137.967C455.542 133.883 453.25 130.994 449.762 128.604L448.267 127.508L436.308 140.259C439.596 143.745 442.686 146.036 446.971 146.036V146.136ZM452.253 102.106C452.253 97.3243 448.665 95.0331 445.277 95.0331C441.191 95.0331 438.101 97.922 438.101 101.807C438.101 104.297 439.297 106.887 442.586 109.278L446.074 111.769L447.968 109.677C449.861 107.983 452.253 105.194 452.253 102.106Z" fill="#ffffff"/>
<path d="M405.015 110.772V121.929C403.819 121.83 402.523 121.63 401.128 121.63C397.54 121.63 394.451 122.826 392.358 125.117C390.365 127.209 389.169 130.197 389.169 135.278V156.296H377.01V110.872H388.172V116.849C388.67 116.351 389.069 115.753 389.667 115.255C392.557 112.366 396.643 110.473 401.128 110.473C402.423 110.374 403.819 110.473 405.015 110.772Z" fill="#ffffff"/>
<path d="M371.33 110.972V156.396H360.168V152.113C356.58 155.699 351.597 157.691 346.216 157.691C333.061 157.691 322.995 147.032 322.995 133.684C322.995 120.335 332.961 109.677 346.216 109.677C351.697 109.677 356.481 111.669 360.168 115.255V110.872H371.33V110.972ZM359.769 133.684C359.769 126.512 354.687 121.033 347.611 121.033C340.535 121.033 335.453 126.312 335.453 133.684C335.453 141.055 340.535 146.335 347.611 146.335C354.687 146.335 359.769 140.956 359.769 133.684Z" fill="#ffffff"/>
<path d="M319.208 133.584C319.208 146.933 309.242 157.592 295.988 157.592C290.905 157.592 286.52 155.898 282.932 152.81V180.105H270.774V110.972H281.936V115.255C285.523 111.768 290.307 109.677 295.888 109.677C309.043 109.677 319.108 120.335 319.108 133.684L319.208 133.584ZM306.751 133.584C306.751 126.412 301.668 120.933 294.592 120.933C287.517 120.933 282.434 126.412 282.434 133.584C282.434 140.757 287.517 146.235 294.592 146.235C301.668 146.235 306.751 140.856 306.751 133.584Z" fill="#ffffff"/>
<path d="M233.501 144.94L245.46 143.247C245.959 145.538 248.251 147.132 250.543 147.132C252.835 147.132 254.629 145.538 254.629 143.247C254.629 141.354 253.433 140.159 250.942 139.362L245.759 137.668C237.388 134.78 234 129.4 234 123.722C234 115.952 240.976 109.876 250.144 109.876C257.32 109.876 263.299 113.761 265.293 119.24L253.931 123.324C253.433 121.63 251.839 120.435 250.045 120.435C247.952 120.435 246.457 121.63 246.457 123.324C246.457 124.818 247.553 125.814 249.746 126.512L254.828 128.205C264.196 131.293 267.086 137.569 267.086 142.948C267.086 151.117 260.011 157.592 250.443 157.592C241.873 157.691 234.598 152.212 233.402 144.94H233.501Z" fill="#ffffff"/>
<path d="M229.316 110.972V156.396H218.154V152.113C214.566 155.699 209.782 157.691 204.202 157.691C191.047 157.691 180.981 147.032 180.981 133.684C180.981 120.335 190.947 109.677 204.202 109.677C209.683 109.677 214.466 111.669 218.154 115.255V110.872H229.316V110.972ZM217.656 133.684C217.656 126.512 212.573 121.033 205.497 121.033C198.421 121.033 193.339 126.312 193.339 133.684C193.339 141.055 198.421 146.335 205.497 146.335C212.573 146.335 217.656 140.956 217.656 133.684Z" fill="#ffffff"/>
<path d="M142.513 88.3589V114.259L168.324 88.3589H184.768L154.073 118.742L186.064 156.396H170.517L145.403 126.412L142.513 129.301V156.396H129.557V88.3589H142.513Z" fill="#ffffff"/>
<path d="M740.766 259V0H481.652V156.695H513.344C528.592 156.695 539.953 164.266 539.953 177.614C539.953 194.25 526.898 202.219 519.025 203.614V203.913C532.478 204.311 546.231 212.679 546.231 229.315C546.231 245.95 532.678 258.103 512.646 258.9H511.45H544.139V255.115C557.294 253.521 556.696 254.218 556.696 240.671V174.925C556.696 161.377 557.294 162.074 544.139 160.48V156.695H580.215C602.539 156.695 614.897 162.273 614.897 178.909C614.897 191.162 605.429 200.227 593.868 203.614V203.913C609.415 204.311 621.773 214.472 621.773 229.813C621.773 250.234 606.127 259.1 584.6 259.1H740.666L740.766 259ZM732.594 204.809C732.594 230.809 716.15 252.824 691.634 259H664.028C642.701 253.123 627.553 233.399 627.553 209.79C627.553 178.212 652.069 155.002 682.565 155.002C713.061 155.002 732.694 182.296 732.694 204.809H732.594ZM715.951 209.192C715.951 174.227 697.115 160.082 679.276 160.082C654.461 160.082 644.196 182.296 644.196 202.219C644.196 237.583 662.334 255.713 681.17 255.713C708.377 255.713 715.951 228.817 715.951 209.192ZM507.763 166.955H495.804V200.526H502.78C515.038 200.526 525.702 192.058 525.702 181.101C525.702 172.036 519.423 166.955 507.763 166.955ZM507.265 210.786H495.904V248.74H509.657C521.217 248.74 531.183 242.464 531.183 230.211C531.183 215.867 518.925 210.786 507.364 210.786H507.265ZM579.318 161.377H570.947V203.215H582.109C590.48 203.215 600.346 198.434 600.346 181.4C600.346 166.955 593.37 161.377 579.318 161.377ZM580.315 207.798H570.947V237.782C570.947 250.632 573.538 254.318 585.696 254.318C598.851 254.318 605.13 246.249 605.13 231.805C605.13 214.173 593.968 207.798 580.315 207.798Z" fill="#ffffff"/>
</g>
<defs fill="#000000">
<clipPath id="clip0_1_78" fill="#000000">
<rect width="877" height="259" fill="#ffffff"/>
</clipPath>
</defs>
</svg>