<svg width="885" height="263" viewBox="0 0 885 263" fill="none" xmlns="http://www.w3.org/2000/svg">
<path d="M380.775 96.4666H358.387L379.218 74.5947L366.327 61.0549V39.4447L389.632 63.7868L403.559 49.0748L400.046 46.4737C393.404 41.5278 387.025 34.7608 387.025 25.387C387.025 11.5856 397.964 2.08105 412.671 2.08105C425.168 2.08105 438.185 10.6749 438.185 26.1668C438.185 34.4991 432.46 41.5278 428.03 46.2175L426.599 47.7768L427.246 48.1697C436.883 55.3293 443 61.9654 443 73.4221C443 85.7896 433.107 98.1568 415.016 98.1568C405.123 98.1568 397.18 93.473 390.28 86.4385L380.775 96.4666ZM414.747 83.0577C421.521 83.0577 425.818 77.7192 425.818 72.3807C425.818 66.9168 422.823 63.3997 418.396 60.1444L416.444 58.7155L400.69 75.3798C405.117 80.064 409.155 83.0577 414.747 83.0577ZM421.784 25.6542C421.784 19.4051 417.091 16.4115 412.798 16.4115C407.332 16.4115 403.423 20.3158 403.423 25.2616C403.423 28.6425 404.987 31.8979 409.284 35.0225L413.837 38.4033L416.314 35.6713C418.659 33.332 421.784 29.5586 421.784 25.6542Z" fill="black"/>
<path d="M359.9 36.8934V51.5945C358.319 51.3492 356.615 51.2292 354.795 51.2292C350.055 51.2292 346.048 52.8104 343.25 55.7223C340.579 58.5196 338.998 62.2824 338.998 68.9676V96.5488H323.2V37.1333H337.901V44.909C338.507 44.1784 339.118 43.4532 339.843 42.7226C343.731 38.8344 348.955 36.5277 354.908 36.4023C356.622 36.4078 358.322 36.5277 359.9 36.8934Z" fill="black"/>
<path d="M316.045 37.1318V96.5473H301.464V90.958C296.726 95.5765 290.406 98.2484 283.241 98.2484C265.987 98.2484 252.987 84.3982 252.987 66.8994C252.987 49.4009 265.987 35.5503 283.241 35.5503C290.411 35.5503 296.726 38.2223 301.464 42.8411V37.1318H316.045ZM300.859 66.8994C300.859 57.4222 294.179 50.3768 285.062 50.3768C275.95 50.3768 269.265 57.4222 269.265 66.8994C269.265 76.3768 275.95 83.4219 285.062 83.4219C294.179 83.4274 300.859 76.3768 300.859 66.8994Z" fill="black"/>
<path d="M247.894 66.7795C247.894 84.278 234.895 98.1286 217.641 98.1286C211.081 98.1286 205.247 95.8219 200.634 91.9341V127.411H184.836V37.1315H199.417V42.7208C204.156 38.1024 210.476 35.4304 217.641 35.4304C234.895 35.4304 247.894 49.281 247.894 66.7795ZM231.612 66.7795C231.612 57.302 224.932 50.257 215.815 50.257C206.703 50.257 200.017 57.302 200.017 66.7795C200.017 76.2566 206.703 83.302 215.815 83.302C224.932 83.302 231.612 76.2566 231.612 66.7795Z" fill="black"/>
<path d="M135.921 81.4805L151.538 79.2942C152.16 82.3314 155.132 84.3982 158.229 84.3982C161.452 84.3982 163.682 82.3314 163.682 79.4141C163.682 76.982 162.194 75.406 158.851 74.3101L152.035 72.0034C141.003 68.2355 136.788 61.1901 136.788 53.6543C136.788 43.5717 145.835 35.5503 157.858 35.5503C167.275 35.5503 175.084 40.6543 177.811 47.8194L162.94 53.2887C162.319 50.9824 160.214 49.4009 157.858 49.4009C155.132 49.4009 153.147 50.9824 153.147 53.2887C153.147 55.2355 154.51 56.5717 157.482 57.5422L164.053 59.7289C176.197 63.7367 180.041 71.998 180.041 79.0488C180.041 89.6219 170.744 98.2484 158.229 98.2484C146.952 98.2484 137.535 91.078 135.921 81.4805Z" fill="black"/>
<path d="M130.37 37.1318V96.5473H115.789V90.958C111.05 95.5765 104.73 98.2484 97.5647 98.2484C80.3115 98.2484 67.3115 84.3982 67.3115 66.8994C67.3115 49.4009 80.3115 35.5503 97.5647 35.5503C104.735 35.5503 111.05 38.2223 115.789 42.8411V37.1318H130.37ZM115.183 66.8994C115.183 57.4222 108.498 50.3768 99.3861 50.3768C90.2739 50.3768 83.5887 57.4222 83.5887 66.8994C83.5887 76.3768 90.2685 83.4219 99.3861 83.4219C108.503 83.4219 115.183 76.3768 115.183 66.8994Z" fill="black"/>
<path d="M17.0133 7.68628V41.3912L50.7889 7.68628H72.1756L32.0798 47.4003L73.8767 96.5423H53.4664L20.7813 57.2973L17.0133 61.071V96.5423H0V7.68628H17.0133Z" fill="black"/>
<path d="M190.648 203.776L182.202 224.301H198.895L190.648 203.776ZM179.975 229.604L174.024 244.147H168L190.78 190.458L212.97 244.147H206.883L201.054 229.604" fill="black"/>
<path d="M219.379 244.147H224.616V188.074H219.379V244.147Z" fill="black"/>
<path d="M240.259 227.838C240.259 234.092 243.792 240.008 250.338 240.008C257.078 240.008 260.617 234.36 260.617 227.909C260.617 221.517 256.752 216.351 250.27 216.351C244.187 216.351 240.259 221.856 240.259 227.838ZM240.522 216.761H240.654C243.207 213.224 247.004 211.321 251.254 211.321C260.29 211.321 265.987 219.412 265.987 228.248C265.987 237.351 260.422 245.032 251.191 245.032C247.004 245.032 243.139 243.13 240.654 239.664H240.522V262.091H235.283V212.207H240.522V216.761Z" fill="black"/>
<path d="M279.731 188.074V215.936L279.863 216.073C282.027 213.011 284.839 211.316 288.636 211.316C297.141 211.316 299.105 217.707 299.105 225.181V244.147H293.87V226.132C293.87 220.966 293.476 216.346 287.393 216.346C280.19 216.346 279.731 223.278 279.731 228.986V244.147H274.497V188.074H279.731Z" fill="black"/>
<path d="M312.985 227.838C312.985 234.092 316.519 240.008 323.064 240.008C329.805 240.008 333.343 234.36 333.343 227.909C333.343 221.517 329.478 216.351 322.996 216.351C316.914 216.351 312.985 221.856 312.985 227.838ZM338.314 244.147H333.085V239.734H332.953C330.268 243.266 326.666 245.032 322.348 245.032C313.317 245.032 307.619 237.078 307.619 228.248C307.619 219.139 313.185 211.321 322.411 211.321C326.598 211.321 330.394 213.365 332.953 216.761H333.085V212.207H338.314V244.147Z" fill="black"/>
<path d="M376.578 210.668H378.65C386.214 210.668 393.856 209.186 393.856 199.505C393.856 189.258 386.609 188.272 378.572 188.272H376.578V210.668ZM376.578 244.147H369.892V181.825H378.572C389.957 181.825 400.543 184.962 400.543 199.014C400.543 208.604 394.733 215.379 385.497 216.204L404.603 244.147H396.405L378.25 216.786H376.578V244.147Z" fill="black"/>
<path d="M452.21 207.116V181.825H458.897V244.147H452.21V213.563H421.481V244.147H414.789V181.825H421.481V207.116" fill="black"/>
<path d="M472.748 181.82H503.877V188.266H479.439V206.782H503.165V213.234H479.439V237.7H503.877V244.147H472.748" fill="black"/>
<path d="M516.856 244.147H523.542V181.82H516.856V244.147Z" fill="black"/>
<path d="M537.554 179.173L584.372 230.095V181.82H591.054V246.95L544.246 196.12V244.142H537.554" fill="black"/>
<path d="M620.916 244.147H614.224V188.267H599.739V181.82H635.561V188.267H620.916" fill="black"/>
<path d="M660.242 195.042L649.973 220.004H670.272L660.242 195.042ZM647.268 226.456L640.016 244.147H632.695L660.403 178.844L687.389 244.147H679.99L672.904 226.456" fill="black"/>
<path d="M702.035 237.695H718.596V244.142H695.348V181.815H702.035" fill="black"/>
<path d="M750.963 238.844H756.46C762.616 238.844 769.098 237.28 769.098 229.467C769.098 221.512 761.758 220.359 755.744 220.359H750.963V238.844ZM750.963 215.465H753.058C759.277 215.465 764.575 214.716 764.575 206.767C764.575 199.02 759.867 198.205 753.122 198.205H750.963V215.465ZM745.465 192.902H753.58C762.553 192.902 770.078 196.302 770.078 206.767C770.078 210.911 768.567 214.443 765.233 216.756C771.126 218.248 774.591 223.754 774.591 229.872C774.591 240.068 766.671 244.147 756.923 244.147H745.465V192.902Z" fill="black"/>
<path d="M786.57 227.838C786.57 234.092 790.104 240.008 796.649 240.008C803.39 240.008 806.923 234.36 806.923 227.909C806.923 221.517 803.063 216.351 796.581 216.351C790.499 216.351 786.57 221.856 786.57 227.838ZM811.899 244.147H806.665V239.734H806.533C803.853 243.266 800.246 245.032 795.933 245.032C786.902 245.032 781.204 237.078 781.204 228.248C781.204 219.139 786.765 211.321 795.996 211.321C800.183 211.321 803.98 213.365 806.533 216.761H806.665V212.207H811.899V244.147Z" fill="black"/>
<path d="M828.002 216.083H828.134C830.293 213.021 833.105 211.326 836.907 211.326C845.412 211.326 847.376 217.712 847.376 225.191V244.152H842.141V226.143C842.141 220.976 841.746 216.356 835.659 216.356C828.46 216.356 828.002 223.289 828.002 228.991V244.152H822.768V212.207H828.002V216.083Z" fill="black"/>
<path d="M863.479 224.027L874.674 212.202H881.677L868.523 225.793L884.163 244.142H877.223L864.858 229.599L863.479 231.031V244.142H858.244V188.074H863.479" fill="black"/>
<path d="M450.762 148.559L525.248 3.78467L548.296 47.2219L490.864 159.19L188.26 159.256L193.597 148.503" fill="black"/>
<path d="M562.879 158.952L529.332 95.2792L551.26 52.601L602.171 147.845H859.234L864.576 158.937" fill="black"/>
</svg>
